<svg xmlns="http://www.w3.org/2000/svg" xmlns:xlink="http://www.w3.org/1999/xlink" width="50" zoomAndPan="magnify" viewBox="0 0 37.5 37.499999" height="50" preserveAspectRatio="xMidYMid meet" version="1.0"><defs><clipPath id="25e8cb943c"><path d="M 0.476562 0.40625 L 36.742188 0.40625 L 36.742188 36.675781 L 0.476562 36.675781 Z M 0.476562 0.40625 " clip-rule="nonzero"/></clipPath></defs><g clip-path="url(#25e8cb943c)"><path fill="#0077b6" d="M 36.253906 9.316406 C 36.082031 9.148438 35.878906 9.0625 35.640625 9.0625 C 35.398438 9.0625 35.195312 9.148438 35.023438 9.316406 L 34.410156 9.933594 L 27.066406 2.589844 L 27.679688 1.972656 C 27.851562 1.804688 27.933594 1.601562 27.933594 1.359375 C 27.933594 1.121094 27.851562 0.914062 27.679688 0.746094 C 27.511719 0.578125 27.308594 0.492188 27.066406 0.492188 C 26.828125 0.492188 26.621094 0.578125 26.453125 0.746094 L 25.234375 1.972656 C 22.289062 4.910156 22.660156 8.160156 23.398438 11.167969 C 20.398438 10.421875 17.148438 10.058594 14.210938 12.996094 C 13.28125 13.90625 12.597656 14.980469 12.167969 16.214844 C 12.136719 16.28125 12.113281 16.351562 12.09375 16.425781 C 11.410156 18.535156 11.589844 20.761719 11.9375 22.96875 C 9.734375 22.621094 7.507812 22.441406 5.398438 23.125 C 5.324219 23.140625 5.253906 23.164062 5.183594 23.195312 C 3.953125 23.628906 2.878906 24.308594 1.964844 25.242188 L 0.738281 26.460938 C 0.566406 26.632812 0.480469 26.835938 0.480469 27.078125 C 0.480469 27.316406 0.566406 27.519531 0.738281 27.691406 C 0.90625 27.859375 1.113281 27.941406 1.351562 27.941406 C 1.589844 27.941406 1.792969 27.859375 1.964844 27.691406 L 2.578125 27.078125 L 9.921875 34.421875 L 9.308594 35.035156 C 9.136719 35.203125 9.054688 35.410156 9.054688 35.648438 C 9.054688 35.886719 9.136719 36.09375 9.308594 36.261719 C 9.480469 36.429688 9.683594 36.515625 9.921875 36.515625 C 10.160156 36.515625 10.367188 36.429688 10.535156 36.261719 L 11.757812 35.035156 C 12.691406 34.117188 13.375 33.042969 13.804688 31.808594 C 13.835938 31.746094 13.859375 31.679688 13.875 31.609375 C 14.558594 29.492188 14.378906 27.273438 14.03125 25.0625 C 16.234375 25.40625 18.464844 25.589844 20.574219 24.902344 C 20.644531 24.886719 20.71875 24.863281 20.785156 24.832031 C 22.019531 24.402344 23.089844 23.71875 24.003906 22.785156 C 26.941406 19.851562 26.578125 16.597656 25.832031 13.601562 C 28.839844 14.339844 32.089844 14.710938 35.023438 11.765625 L 36.253906 10.546875 C 36.421875 10.375 36.507812 10.171875 36.507812 9.933594 C 36.507812 9.691406 36.421875 9.488281 36.253906 9.316406 Z M 31.59375 12.011719 L 24.988281 5.40625 C 25.210938 4.84375 25.511719 4.332031 25.894531 3.863281 L 33.136719 11.105469 C 32.667969 11.484375 32.152344 11.785156 31.59375 12.011719 Z M 29.539062 12.402344 C 28.207031 12.417969 26.808594 12.074219 25.328125 11.671875 C 24.925781 10.191406 24.578125 8.789062 24.59375 7.460938 Z M 23.335938 20.898438 L 16.101562 13.664062 C 16.566406 13.28125 17.078125 12.976562 17.636719 12.75 L 24.25 19.363281 C 24.019531 19.917969 23.71875 20.429688 23.335938 20.898438 Z M 20.605469 23.0625 L 13.9375 16.394531 C 14.183594 15.847656 14.496094 15.34375 14.875 14.882812 L 22.117188 22.125 C 21.652344 22.5 21.148438 22.8125 20.605469 23.0625 Z M 19.699219 12.363281 C 21.03125 12.339844 22.421875 12.6875 23.910156 13.089844 C 24.3125 14.570312 24.660156 15.96875 24.632812 17.300781 Z M 12.230469 24.769531 C 12.511719 26.46875 12.71875 28.125 12.527344 29.683594 L 7.324219 24.472656 C 8.875 24.28125 10.527344 24.496094 12.230469 24.769531 Z M 11.09375 33.144531 L 3.855469 25.902344 C 4.351562 25.519531 4.84375 25.1875 5.363281 24.96875 L 12.03125 31.632812 C 11.789062 32.179688 11.476562 32.683594 11.09375 33.144531 Z M 13.742188 23.257812 C 13.464844 21.558594 13.253906 19.90625 13.441406 18.355469 L 18.652344 23.558594 C 17.09375 23.746094 15.441406 23.542969 13.742188 23.257812 Z M 13.742188 23.257812 " fill-opacity="1" fill-rule="nonzero"/></g></svg>