<svg xmlns="http://www.w3.org/2000/svg" xmlns:xlink="http://www.w3.org/1999/xlink" width="50" zoomAndPan="magnify" viewBox="0 0 37.5 37.499999" height="50" preserveAspectRatio="xMidYMid meet" version="1.0"><defs><clipPath id="5b5ac61f4a"><path d="M 0 0 L 37.007812 0 L 37.007812 37.007812 L 0 37.007812 Z M 0 0 " clip-rule="nonzero"/></clipPath><clipPath id="83eae54e66"><path d="M 0.851562 0.851562 L 36.378906 0.851562 L 36.378906 36.378906 L 0.851562 36.378906 Z M 0.851562 0.851562 " clip-rule="nonzero"/></clipPath></defs><g clip-path="url(#5b5ac61f4a)"><path fill="#ffffff" d="M 0 0 L 37.007812 0 L 37.007812 37.007812 L 0 37.007812 Z M 0 0 " fill-opacity="1" fill-rule="nonzero"/><path fill="#ffffff" d="M 0 0 L 37.007812 0 L 37.007812 37.007812 L 0 37.007812 Z M 0 0 " fill-opacity="1" fill-rule="nonzero"/></g><path fill="#0077b6" d="M 17.792969 13.386719 L 14.234375 13.386719 C 13.59375 13.386719 13.070312 12.867188 13.070312 12.226562 L 13.070312 12.175781 C 13.070312 11.535156 13.59375 11.011719 14.234375 11.011719 L 17.792969 11.011719 C 18.433594 11.011719 18.953125 11.535156 18.953125 12.175781 L 18.953125 12.226562 C 18.953125 12.867188 18.441406 13.386719 17.792969 13.386719 Z M 14.242188 11.542969 C 13.894531 11.542969 13.609375 11.820312 13.609375 12.175781 L 13.609375 12.226562 C 13.609375 12.570312 13.886719 12.859375 14.242188 12.859375 L 17.792969 12.859375 C 18.136719 12.859375 18.425781 12.578125 18.425781 12.226562 L 18.425781 12.175781 C 18.425781 11.828125 18.144531 11.542969 17.792969 11.542969 Z M 14.242188 11.542969 " fill-opacity="1" fill-rule="nonzero"/><path fill="#0077b6" d="M 20.609375 29.792969 L 11.453125 29.792969 C 10.851562 29.792969 10.285156 29.535156 9.902344 29.085938 C 9.886719 29.066406 9.867188 29.042969 9.851562 29.019531 C 9.378906 28.425781 9.226562 27.625 9.425781 26.875 C 10.078125 24.417969 11.828125 22.136719 13.234375 20.308594 C 13.558594 19.867188 13.769531 19.394531 13.894531 18.835938 C 13.960938 18.535156 13.992188 18.210938 13.992188 17.867188 L 13.992188 13.125 C 13.992188 12.976562 14.109375 12.859375 14.257812 12.859375 C 14.402344 12.859375 14.519531 12.976562 14.519531 13.125 L 14.519531 17.867188 C 14.519531 18.25 14.484375 18.609375 14.410156 18.945312 C 14.269531 19.578125 14.027344 20.125 13.652344 20.625 C 11.902344 22.910156 10.511719 24.828125 9.933594 27.011719 C 9.769531 27.601562 9.894531 28.234375 10.261719 28.699219 C 10.277344 28.710938 10.292969 28.734375 10.300781 28.75 C 10.578125 29.074219 11 29.261719 11.445312 29.261719 L 20.601562 29.261719 C 21.050781 29.261719 21.46875 29.074219 21.75 28.75 C 21.761719 28.734375 21.777344 28.710938 21.785156 28.699219 C 22.152344 28.234375 22.277344 27.601562 22.117188 27.011719 C 21.527344 24.835938 20.144531 22.917969 18.394531 20.632812 C 18.019531 20.132812 17.769531 19.578125 17.636719 18.945312 C 17.566406 18.609375 17.527344 18.25 17.527344 17.867188 L 17.527344 13.117188 C 17.527344 12.96875 17.644531 12.851562 17.792969 12.851562 C 17.941406 12.851562 18.058594 12.96875 18.058594 13.117188 L 18.058594 17.859375 C 18.058594 18.195312 18.09375 18.527344 18.152344 18.828125 C 18.277344 19.386719 18.484375 19.859375 18.816406 20.300781 C 20.21875 22.132812 21.960938 24.410156 22.625 26.867188 C 22.828125 27.617188 22.667969 28.417969 22.199219 29.011719 C 22.183594 29.035156 22.160156 29.058594 22.144531 29.078125 C 21.777344 29.535156 21.21875 29.792969 20.609375 29.792969 Z M 20.609375 29.792969 " fill-opacity="1" fill-rule="nonzero"/><path fill="#0077b6" d="M 17.367188 28.300781 C 16.808594 28.300781 16.351562 27.84375 16.351562 27.285156 C 16.351562 26.726562 16.808594 26.269531 17.367188 26.269531 C 17.925781 26.269531 18.382812 26.726562 18.382812 27.285156 C 18.386719 27.84375 17.933594 28.300781 17.367188 28.300781 Z M 17.367188 26.800781 C 17.09375 26.800781 16.882812 27.011719 16.882812 27.285156 C 16.882812 27.558594 17.09375 27.769531 17.367188 27.769531 C 17.636719 27.769531 17.851562 27.558594 17.851562 27.285156 C 17.859375 27.019531 17.636719 26.800781 17.367188 26.800781 Z M 17.367188 26.800781 " fill-opacity="1" fill-rule="nonzero"/><path fill="#0077b6" d="M 19.328125 26.324219 C 18.769531 26.324219 18.316406 25.867188 18.316406 25.308594 C 18.316406 24.75 18.769531 24.292969 19.328125 24.292969 C 19.886719 24.292969 20.34375 24.75 20.34375 25.308594 C 20.34375 25.867188 19.894531 26.324219 19.328125 26.324219 Z M 19.328125 24.824219 C 19.058594 24.824219 18.84375 25.035156 18.84375 25.308594 C 18.84375 25.578125 19.058594 25.792969 19.328125 25.792969 C 19.601562 25.792969 19.816406 25.578125 19.816406 25.308594 C 19.816406 25.035156 19.601562 24.824219 19.328125 24.824219 Z M 19.328125 24.824219 " fill-opacity="1" fill-rule="nonzero"/><path fill="#0077b6" d="M 17.761719 23.785156 C 17.441406 23.785156 17.066406 23.675781 16.652344 23.386719 C 16.402344 23.210938 16.136719 23.085938 15.875 23.019531 C 15.328125 22.882812 14.820312 22.949219 14.320312 23.226562 C 14.285156 23.25 14.25 23.269531 14.210938 23.300781 L 14.203125 23.308594 C 13.359375 23.875 12.453125 23.800781 11.527344 23.09375 C 11.410156 23.007812 11.386719 22.835938 11.476562 22.726562 C 11.566406 22.617188 11.734375 22.585938 11.84375 22.675781 C 12.601562 23.242188 13.25 23.308594 13.910156 22.867188 L 13.917969 22.859375 C 13.96875 22.828125 14.011719 22.800781 14.066406 22.761719 C 14.683594 22.417969 15.335938 22.335938 16.011719 22.511719 C 16.335938 22.59375 16.660156 22.75 16.953125 22.960938 C 17.519531 23.359375 17.992188 23.367188 18.445312 22.992188 C 18.683594 22.800781 18.910156 22.660156 19.144531 22.574219 C 19.535156 22.425781 19.917969 22.386719 20.308594 22.453125 C 20.453125 22.484375 20.542969 22.617188 20.519531 22.761719 C 20.492188 22.910156 20.359375 23 20.210938 22.976562 C 19.917969 22.925781 19.632812 22.953125 19.328125 23.066406 C 19.144531 23.132812 18.96875 23.242188 18.777344 23.402344 C 18.535156 23.601562 18.191406 23.785156 17.761719 23.785156 Z M 17.761719 23.785156 " fill-opacity="1" fill-rule="nonzero"/><path fill="#0077b6" d="M 22.460938 20.851562 C 21.632812 20.851562 20.945312 20.175781 20.945312 19.335938 C 20.945312 18.5 21.625 17.820312 22.460938 17.820312 C 23.300781 17.820312 23.976562 18.5 23.976562 19.335938 C 23.976562 20.175781 23.292969 20.851562 22.460938 20.851562 Z M 22.460938 18.351562 C 21.917969 18.351562 21.476562 18.792969 21.476562 19.335938 C 21.476562 19.882812 21.917969 20.320312 22.460938 20.320312 C 23.007812 20.320312 23.449219 19.882812 23.449219 19.335938 C 23.449219 18.792969 23.007812 18.351562 22.460938 18.351562 Z M 22.460938 18.351562 " fill-opacity="1" fill-rule="nonzero"/><path fill="#0077b6" d="M 26.136719 18.34375 C 25.308594 18.34375 24.625 17.667969 24.625 16.828125 C 24.625 16 25.300781 15.316406 26.136719 15.316406 C 26.976562 15.316406 27.652344 15.992188 27.652344 16.828125 C 27.652344 17.667969 26.976562 18.34375 26.136719 18.34375 Z M 26.136719 15.84375 C 25.59375 15.84375 25.152344 16.285156 25.152344 16.828125 C 25.152344 17.375 25.59375 17.816406 26.136719 17.816406 C 26.683594 17.816406 27.125 17.375 27.125 16.828125 C 27.125 16.285156 26.683594 15.84375 26.136719 15.84375 Z M 26.136719 15.84375 " fill-opacity="1" fill-rule="nonzero"/><path fill="#0077b6" d="M 21.992188 16.542969 C 20.917969 16.542969 20.050781 15.675781 20.050781 14.601562 C 20.050781 13.527344 20.917969 12.660156 21.992188 12.660156 C 23.066406 12.660156 23.933594 13.527344 23.933594 14.601562 C 23.933594 15.675781 23.066406 16.542969 21.992188 16.542969 Z M 21.992188 13.191406 C 21.210938 13.191406 20.578125 13.820312 20.578125 14.601562 C 20.578125 15.382812 21.210938 16.011719 21.992188 16.011719 C 22.769531 16.011719 23.402344 15.382812 23.402344 14.601562 C 23.402344 13.820312 22.769531 13.191406 21.992188 13.191406 Z M 21.992188 13.191406 " fill-opacity="1" fill-rule="nonzero"/><path fill="#0077b6" d="M 24.527344 11.808594 C 23.257812 11.808594 22.226562 10.777344 22.226562 9.503906 C 22.226562 8.234375 23.257812 7.203125 24.527344 7.203125 C 25.800781 7.203125 26.828125 8.234375 26.828125 9.503906 C 26.828125 10.777344 25.792969 11.808594 24.527344 11.808594 Z M 24.527344 7.734375 C 23.550781 7.734375 22.757812 8.527344 22.757812 9.503906 C 22.757812 10.484375 23.550781 11.277344 24.527344 11.277344 C 25.507812 11.277344 26.300781 10.484375 26.300781 9.503906 C 26.300781 8.527344 25.5 7.734375 24.527344 7.734375 Z M 24.527344 7.734375 " fill-opacity="1" fill-rule="nonzero"/><g clip-path="url(#83eae54e66)"><path fill="#0077b6" d="M 34.757812 11.628906 C 33.867188 9.527344 32.59375 7.644531 30.976562 6.019531 C 29.359375 4.402344 27.46875 3.128906 25.367188 2.242188 C 23.191406 1.320312 20.882812 0.851562 18.5 0.851562 C 16.117188 0.851562 13.808594 1.3125 11.628906 2.242188 C 9.527344 3.128906 7.644531 4.402344 6.019531 6.019531 C 4.394531 7.636719 3.128906 9.527344 2.242188 11.628906 C 1.320312 13.808594 0.851562 16.117188 0.851562 18.5 C 0.851562 20.882812 1.3125 23.191406 2.242188 25.367188 C 3.128906 27.46875 4.402344 29.351562 6.019531 30.976562 C 7.636719 32.59375 9.527344 33.867188 11.628906 34.757812 C 13.808594 35.675781 16.117188 36.144531 18.5 36.144531 C 20.882812 36.144531 23.191406 35.683594 25.367188 34.757812 C 27.46875 33.867188 29.351562 32.59375 30.976562 30.976562 C 32.59375 29.359375 33.867188 27.46875 34.757812 25.367188 C 35.675781 23.191406 36.144531 20.882812 36.144531 18.5 C 36.144531 16.117188 35.675781 13.808594 34.757812 11.628906 Z M 35.484375 18.5 C 35.484375 27.867188 27.859375 35.492188 18.492188 35.492188 C 9.125 35.492188 1.5 27.867188 1.5 18.5 C 1.5 9.128906 9.125 1.503906 18.492188 1.503906 C 27.867188 1.503906 35.484375 9.128906 35.484375 18.5 Z M 35.484375 18.5 " fill-opacity="1" fill-rule="nonzero"/></g></svg>