<svg xmlns="http://www.w3.org/2000/svg" xmlns:xlink="http://www.w3.org/1999/xlink" width="50" zoomAndPan="magnify" viewBox="0 0 37.5 37.499999" height="50" preserveAspectRatio="xMidYMid meet" version="1.0"><defs><clipPath id="582aab3fda"><path d="M 0.210938 1.839844 L 36.476562 1.839844 L 36.476562 35.144531 L 0.210938 35.144531 Z M 0.210938 1.839844 " clip-rule="nonzero"/></clipPath></defs><g clip-path="url(#582aab3fda)"><path fill="#0077b6" d="M 35.800781 35.15625 L 1.199219 35.15625 C 0.65625 35.15625 0.21875 34.71875 0.21875 34.179688 L 0.21875 2.820312 C 0.21875 2.277344 0.65625 1.839844 1.199219 1.839844 L 35.800781 1.839844 C 36.34375 1.839844 36.78125 2.277344 36.78125 2.820312 L 36.78125 34.179688 C 36.78125 34.71875 36.34375 35.15625 35.800781 35.15625 Z M 2.175781 33.199219 L 34.824219 33.199219 L 34.824219 3.796875 L 2.175781 3.796875 Z M 2.175781 33.199219 " fill-opacity="1" fill-rule="nonzero"/></g><path fill="#0077b6" d="M 33.050781 9.695312 L 3.945312 9.695312 C 3.40625 9.695312 2.96875 9.257812 2.96875 8.71875 C 2.96875 8.175781 3.40625 7.738281 3.945312 7.738281 L 33.050781 7.738281 C 33.59375 7.738281 34.03125 8.175781 34.03125 8.71875 C 34.03125 9.257812 33.59375 9.695312 33.050781 9.695312 Z M 33.050781 9.695312 " fill-opacity="1" fill-rule="nonzero"/><path fill="#0077b6" d="M 33.050781 6.847656 L 28.585938 6.847656 C 28.046875 6.847656 27.609375 6.410156 27.609375 5.871094 C 27.609375 5.328125 28.046875 4.890625 28.585938 4.890625 L 33.050781 4.890625 C 33.59375 4.890625 34.03125 5.328125 34.03125 5.871094 C 34.03125 6.410156 33.59375 6.847656 33.050781 6.847656 Z M 33.050781 6.847656 " fill-opacity="1" fill-rule="nonzero"/><path fill="#0077b6" d="M 6.296875 6.847656 L 3.945312 6.847656 C 3.40625 6.847656 2.96875 6.410156 2.96875 5.871094 C 2.96875 5.328125 3.40625 4.890625 3.945312 4.890625 L 6.296875 4.890625 C 6.835938 4.890625 7.273438 5.328125 7.273438 5.871094 C 7.273438 6.410156 6.835938 6.847656 6.296875 6.847656 Z M 6.296875 6.847656 " fill-opacity="1" fill-rule="nonzero"/><path fill="#0077b6" d="M 12.753906 27.28125 C 12.503906 27.28125 12.253906 27.183594 12.0625 26.992188 L 7.042969 21.972656 C 6.660156 21.589844 6.660156 20.972656 7.042969 20.589844 L 12.0625 15.570312 C 12.445312 15.1875 13.066406 15.1875 13.449219 15.570312 C 13.832031 15.953125 13.832031 16.574219 13.449219 16.953125 L 9.121094 21.28125 L 13.449219 25.609375 C 13.832031 25.988281 13.832031 26.609375 13.449219 26.992188 C 13.257812 27.183594 13.007812 27.28125 12.753906 27.28125 Z M 12.753906 27.28125 " fill-opacity="1" fill-rule="nonzero"/><path fill="#0077b6" d="M 24.246094 27.613281 C 23.992188 27.613281 23.742188 27.515625 23.550781 27.324219 C 23.167969 26.945312 23.167969 26.324219 23.550781 25.941406 L 27.878906 21.613281 L 23.550781 17.289062 C 23.167969 16.90625 23.167969 16.285156 23.550781 15.902344 C 23.933594 15.519531 24.554688 15.519531 24.9375 15.902344 L 29.957031 20.921875 C 30.339844 21.304688 30.339844 21.925781 29.957031 22.308594 L 24.9375 27.324219 C 24.746094 27.515625 24.496094 27.613281 24.246094 27.613281 Z M 24.246094 27.613281 " fill-opacity="1" fill-rule="nonzero"/><path fill="#0077b6" d="M 16.160156 28.851562 C 16.050781 28.851562 15.9375 28.832031 15.828125 28.792969 C 15.320312 28.605469 15.058594 28.042969 15.242188 27.535156 L 19.917969 14.6875 C 20.101562 14.179688 20.664062 13.917969 21.171875 14.105469 C 21.679688 14.289062 21.941406 14.851562 21.757812 15.359375 L 17.082031 28.207031 C 16.9375 28.605469 16.5625 28.851562 16.160156 28.851562 Z M 16.160156 28.851562 " fill-opacity="1" fill-rule="nonzero"/></svg>