<svg xmlns="http://www.w3.org/2000/svg" xmlns:xlink="http://www.w3.org/1999/xlink" width="50" zoomAndPan="magnify" viewBox="0 0 37.5 37.499999" height="50" preserveAspectRatio="xMidYMid meet" version="1.0"><defs><clipPath id="442ed6cc51"><path d="M 0.851562 0.851562 L 36.378906 0.851562 L 36.378906 36.378906 L 0.851562 36.378906 Z M 0.851562 0.851562 " clip-rule="nonzero"/></clipPath></defs><path fill="#0077b6" d="M 10.261719 16.695312 L 10.144531 16.695312 C 8.519531 16.695312 7.203125 15.382812 7.203125 13.757812 L 7.203125 13.085938 C 7.203125 12.941406 7.320312 12.820312 7.46875 12.820312 L 12.945312 12.820312 C 13.09375 12.820312 13.210938 12.941406 13.210938 13.085938 L 13.210938 13.757812 C 13.210938 15.375 11.886719 16.695312 10.261719 16.695312 Z M 7.734375 13.34375 L 7.734375 13.75 C 7.734375 15.078125 8.816406 16.160156 10.144531 16.160156 L 10.261719 16.160156 C 11.59375 16.160156 12.675781 15.078125 12.675781 13.75 L 12.675781 13.34375 Z M 7.734375 13.34375 " fill-opacity="1" fill-rule="nonzero"/><path fill="#0077b6" d="M 10.203125 19.578125 C 10.058594 19.578125 9.941406 19.460938 9.941406 19.316406 L 9.941406 9.910156 C 9.941406 9.761719 10.058594 9.644531 10.203125 9.644531 C 10.351562 9.644531 10.46875 9.761719 10.46875 9.910156 L 10.46875 19.316406 C 10.46875 19.460938 10.351562 19.578125 10.203125 19.578125 Z M 10.203125 19.578125 " fill-opacity="1" fill-rule="nonzero"/><path fill="#0077b6" d="M 23.71875 23.558594 L 10.703125 23.558594 C 10.609375 23.558594 10.519531 23.507812 10.476562 23.425781 C 10.425781 23.34375 10.425781 23.242188 10.46875 23.160156 L 16.976562 11.433594 C 17.027344 11.351562 17.117188 11.292969 17.203125 11.292969 C 17.300781 11.292969 17.386719 11.34375 17.433594 11.433594 L 23.941406 23.160156 C 23.984375 23.242188 23.984375 23.34375 23.933594 23.425781 C 23.902344 23.507812 23.824219 23.558594 23.71875 23.558594 Z M 11.160156 23.027344 L 23.277344 23.027344 L 17.21875 12.117188 Z M 11.160156 23.027344 " fill-opacity="1" fill-rule="nonzero"/><path fill="#0077b6" d="M 19.816406 21.257812 L 14.617188 21.257812 C 14.519531 21.257812 14.433594 21.203125 14.386719 21.125 C 14.335938 21.042969 14.335938 20.941406 14.382812 20.859375 L 16.976562 16.175781 C 17.027344 16.09375 17.117188 16.035156 17.203125 16.035156 C 17.300781 16.035156 17.386719 16.085938 17.433594 16.175781 L 20.027344 20.859375 C 20.070312 20.941406 20.070312 21.042969 20.019531 21.125 C 20 21.203125 19.910156 21.257812 19.816406 21.257812 Z M 15.066406 20.726562 L 19.359375 20.726562 L 17.210938 16.851562 Z M 15.066406 20.726562 " fill-opacity="1" fill-rule="nonzero"/><path fill="#0077b6" d="M 13.203125 24.511719 C 13.058594 24.511719 12.941406 24.394531 12.941406 24.25 L 12.941406 23.285156 C 12.941406 23.136719 13.058594 23.019531 13.203125 23.019531 C 13.351562 23.019531 13.46875 23.136719 13.46875 23.285156 L 13.46875 24.25 C 13.46875 24.394531 13.351562 24.511719 13.203125 24.511719 Z M 13.203125 24.511719 " fill-opacity="1" fill-rule="nonzero"/><path fill="#0077b6" d="M 15.210938 24.511719 C 15.066406 24.511719 14.945312 24.394531 14.945312 24.25 L 14.945312 23.285156 C 14.945312 23.136719 15.066406 23.019531 15.210938 23.019531 C 15.359375 23.019531 15.476562 23.136719 15.476562 23.285156 L 15.476562 24.25 C 15.476562 24.394531 15.359375 24.511719 15.210938 24.511719 Z M 15.210938 24.511719 " fill-opacity="1" fill-rule="nonzero"/><path fill="#0077b6" d="M 17.21875 24.511719 C 17.070312 24.511719 16.953125 24.394531 16.953125 24.25 L 16.953125 23.285156 C 16.953125 23.136719 17.070312 23.019531 17.21875 23.019531 C 17.367188 23.019531 17.484375 23.136719 17.484375 23.285156 L 17.484375 24.25 C 17.484375 24.394531 17.367188 24.511719 17.21875 24.511719 Z M 17.21875 24.511719 " fill-opacity="1" fill-rule="nonzero"/><path fill="#0077b6" d="M 19.21875 24.511719 C 19.070312 24.511719 18.953125 24.394531 18.953125 24.25 L 18.953125 23.285156 C 18.953125 23.136719 19.070312 23.019531 19.21875 23.019531 C 19.367188 23.019531 19.484375 23.136719 19.484375 23.285156 L 19.484375 24.25 C 19.484375 24.394531 19.375 24.511719 19.21875 24.511719 Z M 19.21875 24.511719 " fill-opacity="1" fill-rule="nonzero"/><path fill="#0077b6" d="M 21.226562 24.511719 C 21.078125 24.511719 20.960938 24.394531 20.960938 24.25 L 20.960938 23.285156 C 20.960938 23.136719 21.078125 23.019531 21.226562 23.019531 C 21.375 23.019531 21.492188 23.136719 21.492188 23.285156 L 21.492188 24.25 C 21.492188 24.394531 21.375 24.511719 21.226562 24.511719 Z M 21.226562 24.511719 " fill-opacity="1" fill-rule="nonzero"/><path fill="#0077b6" d="M 29.007812 27.351562 L 25.417969 27.351562 C 24.984375 27.351562 24.632812 27 24.632812 26.566406 L 24.632812 10.484375 C 24.632812 10.050781 24.984375 9.695312 25.417969 9.695312 L 29.007812 9.695312 C 29.441406 9.695312 29.792969 10.050781 29.792969 10.484375 L 29.792969 26.558594 C 29.792969 27 29.441406 27.351562 29.007812 27.351562 Z M 25.417969 10.226562 C 25.277344 10.226562 25.160156 10.34375 25.160156 10.484375 L 25.160156 26.558594 C 25.160156 26.699219 25.277344 26.816406 25.417969 26.816406 L 29.007812 26.816406 C 29.144531 26.816406 29.261719 26.699219 29.261719 26.558594 L 29.261719 10.484375 C 29.261719 10.34375 29.144531 10.226562 29.007812 10.226562 Z M 25.417969 10.226562 " fill-opacity="1" fill-rule="nonzero"/><path fill="#0077b6" d="M 29.527344 24.949219 L 24.894531 24.949219 C 24.75 24.949219 24.632812 24.828125 24.632812 24.683594 L 24.632812 12.367188 C 24.632812 12.21875 24.75 12.101562 24.894531 12.101562 L 29.527344 12.101562 C 29.675781 12.101562 29.792969 12.21875 29.792969 12.367188 L 29.792969 24.683594 C 29.792969 24.824219 29.675781 24.949219 29.527344 24.949219 Z M 25.160156 24.417969 L 29.261719 24.417969 L 29.261719 12.632812 L 25.160156 12.632812 Z M 25.160156 24.417969 " fill-opacity="1" fill-rule="nonzero"/><path fill="#0077b6" d="M 29.527344 15.328125 L 28.324219 15.328125 C 28.175781 15.328125 28.058594 15.210938 28.058594 15.066406 C 28.058594 14.917969 28.175781 14.800781 28.324219 14.800781 L 29.527344 14.800781 C 29.675781 14.800781 29.792969 14.917969 29.792969 15.066406 C 29.792969 15.210938 29.675781 15.328125 29.527344 15.328125 Z M 29.527344 15.328125 " fill-opacity="1" fill-rule="nonzero"/><path fill="#0077b6" d="M 29.527344 17.632812 L 28.324219 17.632812 C 28.175781 17.632812 28.058594 17.511719 28.058594 17.367188 C 28.058594 17.21875 28.175781 17.101562 28.324219 17.101562 L 29.527344 17.101562 C 29.675781 17.101562 29.792969 17.21875 29.792969 17.367188 C 29.792969 17.511719 29.675781 17.632812 29.527344 17.632812 Z M 29.527344 17.632812 " fill-opacity="1" fill-rule="nonzero"/><path fill="#0077b6" d="M 29.527344 19.941406 L 28.324219 19.941406 C 28.175781 19.941406 28.058594 19.820312 28.058594 19.675781 C 28.058594 19.527344 28.175781 19.410156 28.324219 19.410156 L 29.527344 19.410156 C 29.675781 19.410156 29.792969 19.527344 29.792969 19.675781 C 29.792969 19.820312 29.675781 19.941406 29.527344 19.941406 Z M 29.527344 19.941406 " fill-opacity="1" fill-rule="nonzero"/><path fill="#0077b6" d="M 29.527344 22.25 L 28.324219 22.25 C 28.175781 22.25 28.058594 22.132812 28.058594 21.984375 C 28.058594 21.835938 28.175781 21.71875 28.324219 21.71875 L 29.527344 21.71875 C 29.675781 21.71875 29.792969 21.835938 29.792969 21.984375 C 29.792969 22.132812 29.675781 22.25 29.527344 22.25 Z M 29.527344 22.25 " fill-opacity="1" fill-rule="nonzero"/><path fill="#0077b6" d="M 23.328125 27.292969 L 7.46875 27.292969 C 7.320312 27.292969 7.203125 27.175781 7.203125 27.027344 C 7.203125 26.882812 7.320312 26.761719 7.46875 26.761719 L 23.328125 26.761719 C 23.476562 26.761719 23.59375 26.882812 23.59375 27.027344 C 23.59375 27.175781 23.476562 27.292969 23.328125 27.292969 Z M 23.328125 27.292969 " fill-opacity="1" fill-rule="nonzero"/><g clip-path="url(#442ed6cc51)"><path fill="#0077b6" d="M 34.757812 11.628906 C 33.867188 9.527344 32.59375 7.644531 30.976562 6.019531 C 29.359375 4.402344 27.46875 3.128906 25.367188 2.242188 C 23.191406 1.320312 20.882812 0.851562 18.5 0.851562 C 16.117188 0.851562 13.808594 1.3125 11.628906 2.242188 C 9.527344 3.128906 7.644531 4.402344 6.019531 6.019531 C 4.394531 7.636719 3.128906 9.527344 2.242188 11.628906 C 1.320312 13.808594 0.851562 16.117188 0.851562 18.5 C 0.851562 20.882812 1.3125 23.191406 2.242188 25.367188 C 3.128906 27.46875 4.402344 29.351562 6.019531 30.976562 C 7.636719 32.59375 9.527344 33.867188 11.628906 34.757812 C 13.808594 35.675781 16.117188 36.144531 18.5 36.144531 C 20.882812 36.144531 23.191406 35.683594 25.367188 34.757812 C 27.46875 33.867188 29.351562 32.59375 30.976562 30.976562 C 32.59375 29.359375 33.867188 27.46875 34.757812 25.367188 C 35.675781 23.191406 36.144531 20.882812 36.144531 18.5 C 36.144531 16.117188 35.675781 13.808594 34.757812 11.628906 Z M 35.484375 18.5 C 35.484375 27.867188 27.859375 35.492188 18.492188 35.492188 C 9.125 35.492188 1.5 27.867188 1.5 18.5 C 1.5 9.128906 9.125 1.503906 18.492188 1.503906 C 27.867188 1.503906 35.484375 9.128906 35.484375 18.5 Z M 35.484375 18.5 " fill-opacity="1" fill-rule="nonzero"/></g></svg>