<svg xmlns="http://www.w3.org/2000/svg" xmlns:xlink="http://www.w3.org/1999/xlink" width="50" zoomAndPan="magnify" viewBox="0 0 37.5 37.499999" height="50" preserveAspectRatio="xMidYMid meet" version="1.0"><defs><clipPath id="ea40295e75"><path d="M 1.433594 1.644531 L 35.480469 1.644531 L 35.480469 35.691406 L 1.433594 35.691406 Z M 1.433594 1.644531 " clip-rule="nonzero"/></clipPath></defs><g clip-path="url(#ea40295e75)"><path fill="#0077b6" d="M 16.449219 23.398438 L 13.578125 26.265625 C 13.085938 26.761719 12.859375 27.417969 12.945312 28.113281 L 13.304688 30.988281 C 13.351562 31.371094 13.238281 31.703125 12.96875 31.972656 L 10.992188 33.949219 C 10.746094 34.195312 10.457031 34.308594 10.105469 34.292969 L 7.222656 34.179688 L 10.148438 31.253906 C 10.25 31.152344 10.304688 31.015625 10.300781 30.871094 L 10.195312 27.746094 C 10.1875 27.476562 9.96875 27.257812 9.695312 27.246094 L 6.574219 27.144531 C 6.429688 27.140625 6.292969 27.195312 6.191406 27.296875 L 3.265625 30.222656 L 3.148438 27.335938 C 3.136719 26.988281 3.25 26.699219 3.496094 26.453125 L 5.46875 24.476562 C 5.742188 24.203125 6.074219 24.089844 6.457031 24.136719 L 9.332031 24.5 C 10.019531 24.585938 10.671875 24.359375 11.179688 23.863281 L 24.078125 10.964844 C 24.570312 10.46875 24.796875 9.816406 24.710938 9.121094 L 24.351562 6.246094 C 24.300781 5.863281 24.414062 5.53125 24.6875 5.257812 L 26.660156 3.285156 C 26.910156 3.039062 27.199219 2.925781 27.546875 2.9375 L 30.433594 3.054688 L 27.507812 5.980469 C 27.40625 6.082031 27.351562 6.21875 27.355469 6.363281 L 27.460938 9.488281 C 27.46875 9.757812 27.6875 9.976562 27.957031 9.984375 L 31.082031 10.089844 C 31.222656 10.09375 31.363281 10.039062 31.464844 9.9375 L 34.390625 7.011719 L 34.503906 9.894531 C 34.519531 10.246094 34.40625 10.535156 34.160156 10.78125 L 32.183594 12.757812 C 31.914062 13.027344 31.582031 13.144531 31.199219 13.09375 L 28.320312 12.734375 C 27.628906 12.648438 26.972656 12.875 26.476562 13.367188 Z M 25.667969 16.65625 L 24.648438 16.65625 L 17.332031 23.976562 L 17.332031 24.996094 L 18.6875 25.4375 C 18.859375 25.492188 18.984375 25.628906 19.03125 25.800781 C 19.171875 26.355469 19.394531 26.886719 19.6875 27.382812 C 19.777344 27.535156 19.78125 27.722656 19.703125 27.878906 L 19.050781 29.152344 L 20.070312 30.171875 L 21.34375 29.523438 C 21.503906 29.441406 21.691406 29.449219 21.84375 29.539062 C 22.335938 29.832031 22.871094 30.054688 23.425781 30.195312 C 23.597656 30.238281 23.734375 30.367188 23.789062 30.535156 L 24.230469 31.894531 L 25.667969 31.894531 L 26.109375 30.535156 C 26.164062 30.367188 26.304688 30.238281 26.472656 30.195312 C 27.027344 30.054688 27.5625 29.832031 28.058594 29.539062 C 28.210938 29.449219 28.394531 29.445312 28.554688 29.523438 L 29.828125 30.171875 L 30.847656 29.152344 L 30.195312 27.878906 C 30.117188 27.722656 30.121094 27.535156 30.214844 27.382812 C 30.503906 26.886719 30.726562 26.355469 30.871094 25.800781 C 30.914062 25.628906 31.042969 25.492188 31.210938 25.4375 L 32.570312 24.996094 L 32.570312 23.554688 L 31.210938 23.113281 C 31.042969 23.058594 30.914062 22.921875 30.871094 22.75 C 30.726562 22.195312 30.503906 21.664062 30.214844 21.167969 C 30.121094 21.015625 30.117188 20.828125 30.195312 20.671875 L 30.847656 19.398438 L 29.828125 18.378906 L 28.554688 19.027344 C 28.394531 19.109375 28.207031 19.101562 28.054688 19.011719 C 27.5625 18.71875 27.027344 18.5 26.472656 18.355469 C 26.300781 18.3125 26.167969 18.183594 26.109375 18.015625 Z M 11.222656 22.171875 L 11.410156 22.171875 L 21.976562 11.605469 L 21.976562 11.417969 L 20.171875 10.832031 C 20.003906 10.777344 19.875 10.640625 19.828125 10.46875 C 19.644531 9.753906 19.363281 9.070312 18.988281 8.4375 C 18.898438 8.285156 18.890625 8.097656 18.972656 7.9375 L 19.835938 6.242188 L 18.410156 4.820312 L 16.714844 5.683594 C 16.558594 5.761719 16.371094 5.757812 16.21875 5.667969 C 15.582031 5.292969 14.898438 5.007812 14.1875 4.824219 C 14.015625 4.78125 13.878906 4.652344 13.824219 4.484375 L 13.238281 2.675781 L 11.222656 2.675781 L 10.636719 4.484375 C 10.582031 4.652344 10.445312 4.78125 10.273438 4.824219 C 9.5625 5.007812 8.878906 5.292969 8.242188 5.667969 C 8.089844 5.757812 7.902344 5.761719 7.746094 5.683594 L 6.050781 4.820312 L 4.625 6.242188 L 5.488281 7.9375 C 5.570312 8.097656 5.5625 8.285156 5.472656 8.4375 C 5.097656 9.070312 4.8125 9.753906 4.632812 10.46875 C 4.585938 10.640625 4.460938 10.777344 4.292969 10.832031 L 2.484375 11.417969 L 2.484375 13.429688 L 4.292969 14.019531 C 4.460938 14.074219 4.585938 14.210938 4.632812 14.382812 C 4.8125 15.09375 5.097656 15.777344 5.472656 16.414062 C 5.5625 16.566406 5.570312 16.753906 5.488281 16.910156 L 4.625 18.605469 L 6.050781 20.027344 L 7.746094 19.164062 C 7.902344 19.085938 8.089844 19.089844 8.242188 19.179688 C 8.878906 19.558594 9.5625 19.839844 10.273438 20.023438 C 10.445312 20.066406 10.582031 20.195312 10.636719 20.363281 Z M 28.195312 13.761719 L 31.070312 14.121094 C 31.765625 14.207031 32.421875 13.980469 32.917969 13.488281 L 34.890625 11.511719 C 35.339844 11.0625 35.5625 10.492188 35.539062 9.855469 L 35.375 5.792969 C 35.355469 5.34375 34.808594 5.132812 34.492188 5.449219 L 30.894531 9.050781 L 28.476562 8.96875 L 28.394531 6.550781 L 31.996094 2.953125 C 32.316406 2.632812 32.101562 2.089844 31.652344 2.070312 L 27.589844 1.90625 C 26.953125 1.882812 26.382812 2.105469 25.929688 2.554688 L 23.957031 4.527344 C 23.460938 5.023438 23.238281 5.679688 23.324219 6.371094 L 23.683594 9.25 C 23.730469 9.632812 23.617188 9.964844 23.34375 10.238281 L 22.878906 10.703125 C 22.820312 10.632812 22.746094 10.582031 22.65625 10.550781 L 20.753906 9.933594 C 20.574219 9.316406 20.328125 8.722656 20.019531 8.160156 L 20.925781 6.378906 C 21.027344 6.179688 20.988281 5.9375 20.832031 5.777344 L 18.875 3.824219 C 18.71875 3.664062 18.476562 3.625 18.277344 3.730469 L 16.496094 4.636719 C 15.929688 4.328125 15.335938 4.082031 14.722656 3.902344 L 14.101562 2 C 14.035156 1.789062 13.835938 1.644531 13.613281 1.644531 L 10.847656 1.644531 C 10.625 1.644531 10.425781 1.789062 10.355469 2 L 9.738281 3.902344 C 9.125 4.082031 8.53125 4.328125 7.964844 4.636719 L 6.183594 3.730469 C 5.984375 3.628906 5.742188 3.664062 5.585938 3.824219 L 3.628906 5.777344 C 3.472656 5.9375 3.433594 6.179688 3.535156 6.378906 L 4.441406 8.160156 C 4.132812 8.722656 3.886719 9.316406 3.707031 9.933594 L 1.808594 10.550781 C 1.59375 10.621094 1.449219 10.820312 1.449219 11.042969 L 1.449219 13.808594 C 1.449219 14.03125 1.59375 14.230469 1.808594 14.296875 L 3.707031 14.914062 C 3.886719 15.53125 4.132812 16.125 4.441406 16.691406 L 3.535156 18.46875 C 3.433594 18.671875 3.472656 18.910156 3.628906 19.070312 L 5.585938 21.023438 C 5.742188 21.183594 5.984375 21.222656 6.183594 21.121094 L 7.964844 20.210938 C 8.53125 20.523438 9.125 20.769531 9.742188 20.949219 L 10.355469 22.847656 C 10.386719 22.9375 10.441406 23.015625 10.507812 23.074219 C 10.199219 23.378906 9.902344 23.527344 9.460938 23.472656 L 6.585938 23.113281 C 5.890625 23.027344 5.234375 23.25 4.738281 23.746094 L 2.765625 25.71875 C 2.316406 26.171875 2.09375 26.742188 2.117188 27.378906 L 2.28125 31.441406 C 2.300781 31.890625 2.84375 32.101562 3.164062 31.785156 L 6.761719 28.183594 L 9.179688 28.265625 L 9.261719 30.683594 L 5.660156 34.28125 C 5.34375 34.601562 5.554688 35.144531 6.003906 35.164062 L 10.066406 35.328125 C 10.699219 35.351562 11.273438 35.128906 11.722656 34.679688 L 13.699219 32.707031 C 14.191406 32.210938 14.417969 31.554688 14.332031 30.859375 L 13.972656 27.984375 C 13.925781 27.601562 14.039062 27.269531 14.308594 26.996094 L 16.296875 25.011719 L 16.296875 25.371094 C 16.296875 25.59375 16.441406 25.792969 16.652344 25.863281 L 18.105469 26.335938 C 18.242188 26.792969 18.429688 27.238281 18.65625 27.660156 L 17.960938 29.019531 C 17.859375 29.21875 17.898438 29.460938 18.058594 29.621094 L 19.605469 31.167969 C 19.765625 31.328125 20.007812 31.363281 20.207031 31.265625 L 21.566406 30.570312 C 21.988281 30.796875 22.433594 30.980469 22.890625 31.121094 L 23.363281 32.570312 C 23.433594 32.785156 23.628906 32.929688 23.855469 32.929688 L 26.046875 32.929688 C 26.269531 32.929688 26.46875 32.785156 26.535156 32.570312 L 27.007812 31.117188 C 27.464844 30.980469 27.910156 30.796875 28.332031 30.570312 L 29.691406 31.265625 C 29.890625 31.363281 30.132812 31.328125 30.292969 31.167969 L 31.84375 29.621094 C 32 29.460938 32.039062 29.21875 31.9375 29.019531 L 31.242188 27.660156 C 31.472656 27.238281 31.65625 26.792969 31.792969 26.335938 L 33.246094 25.863281 C 33.457031 25.792969 33.601562 25.59375 33.601562 25.371094 L 33.601562 23.179688 C 33.601562 22.957031 33.457031 22.757812 33.246094 22.6875 L 31.792969 22.21875 C 31.65625 21.757812 31.46875 21.316406 31.242188 20.894531 L 31.9375 19.53125 C 32.039062 19.332031 32 19.089844 31.84375 18.933594 L 30.292969 17.382812 C 30.132812 17.226562 29.890625 17.1875 29.691406 17.289062 L 28.332031 17.980469 C 27.910156 17.753906 27.464844 17.570312 27.007812 17.433594 L 26.535156 15.980469 C 26.46875 15.769531 26.269531 15.625 26.046875 15.625 L 25.683594 15.625 L 27.207031 14.097656 C 27.480469 13.828125 27.8125 13.714844 28.195312 13.761719 Z M 24.949219 20.726562 C 22.992188 20.726562 21.398438 22.320312 21.398438 24.277344 C 21.398438 26.234375 22.992188 27.824219 24.949219 27.824219 C 26.90625 27.824219 28.496094 26.234375 28.496094 24.277344 C 28.496094 22.320312 26.90625 20.726562 24.949219 20.726562 Z M 24.949219 28.855469 C 27.476562 28.855469 29.53125 26.800781 29.53125 24.277344 C 29.53125 21.75 27.476562 19.695312 24.949219 19.695312 C 22.421875 19.695312 20.367188 21.75 20.367188 24.277344 C 20.367188 26.800781 22.421875 28.855469 24.949219 28.855469 Z M 12.230469 17.035156 C 14.773438 17.035156 16.84375 14.96875 16.84375 12.425781 C 16.84375 9.882812 14.773438 7.8125 12.230469 7.8125 C 9.6875 7.8125 7.617188 9.882812 7.617188 12.425781 C 7.617188 14.96875 9.6875 17.035156 12.230469 17.035156 Z M 12.230469 6.777344 C 9.117188 6.777344 6.585938 9.3125 6.585938 12.425781 C 6.585938 15.539062 9.117188 18.070312 12.230469 18.070312 C 15.34375 18.070312 17.875 15.539062 17.875 12.425781 C 17.875 9.3125 15.34375 6.777344 12.230469 6.777344 Z M 12.230469 6.777344 " fill-opacity="1" fill-rule="evenodd"/></g></svg>