<svg xmlns="http://www.w3.org/2000/svg" xmlns:xlink="http://www.w3.org/1999/xlink" width="50" zoomAndPan="magnify" viewBox="0 0 37.5 37.499999" height="50" preserveAspectRatio="xMidYMid meet" version="1.0"><defs><clipPath id="d06f5c6631"><path d="M 1.71875 1 L 35.023438 1 L 35.023438 35.78125 L 1.71875 35.78125 Z M 1.71875 1 " clip-rule="nonzero"/></clipPath></defs><g clip-path="url(#d06f5c6631)"><path fill="#0077b6" d="M 26.367188 18.914062 L 26.367188 12.085938 C 26.367188 11 25.480469 10.113281 24.390625 10.113281 L 12.605469 10.113281 C 11.515625 10.113281 10.628906 11 10.628906 12.085938 L 10.628906 18.914062 C 10.628906 20.003906 11.515625 20.890625 12.605469 20.890625 L 24.390625 20.890625 C 25.480469 20.890625 26.367188 20.003906 26.367188 18.914062 Z M 11.34375 18.914062 L 11.34375 12.085938 C 11.34375 11.390625 11.910156 10.824219 12.605469 10.824219 L 24.390625 10.824219 C 25.085938 10.824219 25.652344 11.390625 25.652344 12.085938 L 25.652344 18.914062 C 25.652344 19.609375 25.085938 20.175781 24.390625 20.175781 L 12.605469 20.175781 C 11.910156 20.175781 11.34375 19.609375 11.34375 18.914062 Z M 14.527344 12.390625 C 13.917969 12.390625 13.425781 12.882812 13.425781 13.492188 L 13.425781 14.832031 C 13.425781 15.4375 13.917969 15.933594 14.527344 15.933594 C 15.132812 15.933594 15.628906 15.4375 15.628906 14.832031 L 15.628906 13.492188 C 15.628906 12.882812 15.132812 12.390625 14.527344 12.390625 Z M 14.914062 14.832031 C 14.914062 15.042969 14.738281 15.21875 14.527344 15.21875 C 14.3125 15.21875 14.136719 15.042969 14.136719 14.832031 L 14.136719 13.492188 C 14.136719 13.277344 14.3125 13.101562 14.527344 13.101562 C 14.738281 13.101562 14.914062 13.277344 14.914062 13.492188 Z M 22.46875 12.390625 C 21.863281 12.390625 21.367188 12.882812 21.367188 13.492188 L 21.367188 14.832031 C 21.367188 15.4375 21.863281 15.933594 22.46875 15.933594 C 23.078125 15.933594 23.570312 15.4375 23.570312 14.832031 L 23.570312 13.492188 C 23.570312 12.882812 23.078125 12.390625 22.46875 12.390625 Z M 22.855469 14.832031 C 22.855469 15.042969 22.683594 15.21875 22.46875 15.21875 C 22.253906 15.21875 22.082031 15.042969 22.082031 14.832031 L 22.082031 13.492188 C 22.082031 13.277344 22.253906 13.101562 22.46875 13.101562 C 22.683594 13.101562 22.855469 13.277344 22.855469 13.492188 Z M 21.320312 17.144531 L 21.320312 18.164062 C 21.320312 18.363281 21.160156 18.523438 20.964844 18.523438 L 16.03125 18.523438 C 15.832031 18.523438 15.671875 18.363281 15.671875 18.164062 L 15.671875 17.144531 C 15.671875 16.945312 15.832031 16.785156 16.03125 16.785156 C 16.226562 16.785156 16.386719 16.945312 16.386719 17.144531 L 16.386719 17.808594 L 20.609375 17.808594 L 20.609375 17.144531 C 20.609375 16.945312 20.769531 16.785156 20.964844 16.785156 C 21.160156 16.785156 21.320312 16.945312 21.320312 17.144531 Z M 32.066406 26.472656 L 29.589844 26.472656 C 29.421875 25.660156 28.703125 25.042969 27.839844 25.042969 L 22.1875 25.042969 L 22.1875 23.03125 L 24.390625 23.03125 C 26.609375 23.03125 28.417969 21.269531 28.5 19.074219 L 29.253906 19.074219 C 30.433594 19.074219 31.394531 18.113281 31.394531 16.929688 L 31.394531 14.074219 C 31.394531 12.890625 30.433594 11.929688 29.253906 11.929688 L 28.5 11.929688 C 28.417969 9.734375 26.609375 7.96875 24.390625 7.96875 L 21.082031 7.96875 L 21.082031 7.757812 C 21.082031 6.972656 20.441406 6.332031 19.652344 6.332031 L 18.855469 6.332031 L 18.855469 3.84375 C 19.476562 3.683594 19.941406 3.121094 19.941406 2.449219 C 19.941406 1.652344 19.292969 1.003906 18.496094 1.003906 C 17.699219 1.003906 17.054688 1.652344 17.054688 2.449219 C 17.054688 3.121094 17.515625 3.683594 18.140625 3.84375 L 18.140625 6.332031 L 17.34375 6.332031 C 16.554688 6.332031 15.914062 6.972656 15.914062 7.757812 L 15.914062 7.96875 L 12.605469 7.96875 C 10.386719 7.96875 8.578125 9.734375 8.496094 11.929688 L 7.742188 11.929688 C 6.558594 11.929688 5.597656 12.890625 5.597656 14.070312 L 5.597656 16.929688 C 5.597656 18.113281 6.558594 19.074219 7.742188 19.074219 L 8.496094 19.074219 C 8.578125 21.269531 10.386719 23.03125 12.605469 23.03125 L 14.808594 23.03125 L 14.808594 25.042969 L 9.15625 25.042969 C 8.292969 25.042969 7.574219 25.660156 7.40625 26.472656 L 4.929688 26.472656 C 3.160156 26.472656 1.71875 27.914062 1.71875 29.6875 L 1.71875 30.519531 C 1.71875 31.113281 2.199219 31.59375 2.789062 31.59375 L 2.992188 31.59375 L 2.992188 35.636719 C 2.992188 35.832031 3.152344 35.992188 3.351562 35.992188 L 33.644531 35.992188 C 33.84375 35.992188 34 35.832031 34 35.636719 L 34 31.59375 L 34.207031 31.59375 C 34.796875 31.59375 35.277344 31.113281 35.277344 30.519531 L 35.277344 29.6875 C 35.277344 27.914062 33.835938 26.472656 32.066406 26.472656 Z M 17.765625 2.449219 C 17.765625 2.046875 18.09375 1.71875 18.496094 1.71875 C 18.902344 1.71875 19.230469 2.046875 19.230469 2.449219 C 19.230469 2.851562 18.902344 3.179688 18.496094 3.179688 C 18.09375 3.179688 17.765625 2.851562 17.765625 2.449219 Z M 2.433594 30.519531 L 2.433594 29.6875 C 2.433594 28.308594 3.554688 27.1875 4.929688 27.1875 L 7.371094 27.1875 L 7.371094 30.878906 L 2.789062 30.878906 C 2.59375 30.878906 2.433594 30.71875 2.433594 30.519531 Z M 3.707031 35.277344 L 3.707031 31.59375 L 7.371094 31.59375 L 7.371094 35.277344 Z M 30.683594 14.074219 L 30.683594 16.929688 C 30.683594 17.71875 30.042969 18.359375 29.253906 18.359375 L 28.507812 18.359375 L 28.507812 12.644531 L 29.253906 12.644531 C 30.042969 12.644531 30.683594 13.285156 30.683594 14.074219 Z M 16.628906 7.757812 C 16.628906 7.367188 16.949219 7.046875 17.34375 7.046875 L 19.652344 7.046875 C 20.046875 7.046875 20.367188 7.367188 20.367188 7.757812 L 20.367188 7.96875 L 16.628906 7.96875 Z M 6.3125 16.929688 L 6.3125 14.074219 C 6.3125 13.285156 6.953125 12.644531 7.742188 12.644531 L 8.488281 12.644531 L 8.488281 18.359375 L 7.742188 18.359375 C 6.953125 18.359375 6.3125 17.71875 6.3125 16.929688 Z M 9.199219 18.914062 L 9.199219 12.085938 C 9.199219 10.210938 10.726562 8.683594 12.605469 8.683594 L 24.390625 8.683594 C 26.269531 8.683594 27.792969 10.210938 27.792969 12.085938 L 27.792969 18.914062 C 27.792969 20.792969 26.269531 22.320312 24.390625 22.320312 L 12.605469 22.320312 C 10.726562 22.320312 9.199219 20.792969 9.199219 18.914062 Z M 15.523438 23.03125 L 21.472656 23.03125 L 21.472656 25.042969 L 15.523438 25.042969 Z M 24.933594 35.277344 L 12.058594 35.277344 L 12.058594 31.234375 L 24.933594 31.234375 Z M 28.910156 35.277344 L 25.648438 35.277344 L 25.648438 30.875 C 25.648438 30.679688 25.488281 30.519531 25.292969 30.519531 L 11.703125 30.519531 C 11.507812 30.519531 11.347656 30.679688 11.347656 30.875 L 11.347656 35.277344 L 8.085938 35.277344 L 8.085938 26.828125 C 8.085938 26.238281 8.566406 25.757812 9.15625 25.757812 L 27.839844 25.757812 C 28.429688 25.757812 28.910156 26.238281 28.910156 26.828125 Z M 33.289062 35.277344 L 29.625 35.277344 L 29.625 31.59375 L 33.289062 31.59375 Z M 34.5625 30.519531 C 34.5625 30.71875 34.402344 30.878906 34.207031 30.878906 L 29.625 30.878906 L 29.625 27.1875 L 32.066406 27.1875 C 33.441406 27.1875 34.5625 28.308594 34.5625 29.6875 Z M 34.5625 30.519531 " fill-opacity="1" fill-rule="nonzero"/></g></svg>