<svg xmlns="http://www.w3.org/2000/svg" xmlns:xlink="http://www.w3.org/1999/xlink" width="106" zoomAndPan="magnify" viewBox="0 0 79.5 30.000001" height="40" preserveAspectRatio="xMidYMid meet" version="1.0"><path fill="#165b34" d="M 22.941406 22.09375 C 24.523438 22.09375 25.675781 21.277344 25.675781 19.375 C 25.675781 15.609375 21.1875 17.214844 21.1875 14.523438 C 21.1875 13.195312 22.246094 12.847656 23.238281 12.847656 C 24.429688 12.847656 24.898438 13.355469 25.125 13.355469 C 25.300781 13.355469 25.433594 13.101562 25.433594 12.96875 C 25.433594 12.566406 24.308594 12.203125 23.25 12.203125 C 22.085938 12.203125 20.515625 12.632812 20.515625 14.574219 C 20.515625 17.886719 25.003906 16.222656 25.003906 19.441406 C 25.003906 20.765625 24.242188 21.449219 22.875 21.449219 C 21.132812 21.449219 20.890625 20.324219 20.582031 20.324219 C 20.449219 20.324219 20.273438 20.527344 20.273438 20.699219 C 20.273438 21.128906 21.226562 22.09375 22.941406 22.09375 Z M 22.941406 22.09375 " fill-opacity="1" fill-rule="nonzero"/><path fill="#165b34" d="M 29.441406 22.09375 C 30.632812 22.09375 31.371094 21.558594 31.371094 21.277344 C 31.371094 21.140625 31.222656 20.953125 31.0625 20.953125 C 30.78125 20.953125 30.566406 21.492188 29.46875 21.492188 C 28.222656 21.492188 27.308594 20.78125 27.308594 19.628906 L 27.308594 19.066406 L 30.417969 19.066406 C 30.996094 19.066406 31.558594 19.039062 31.558594 18.03125 C 31.558594 16.625 30.417969 15.605469 29.117188 15.605469 C 27.765625 15.605469 26.652344 16.707031 26.652344 18.019531 L 26.652344 19.613281 C 26.652344 21.101562 27.804688 22.09375 29.441406 22.09375 Z M 27.3125 17.964844 C 27.3125 17.015625 28.101562 16.195312 29.121094 16.195312 C 30.191406 16.195312 30.917969 17.121094 30.917969 18.03125 C 30.917969 18.433594 30.769531 18.515625 30.167969 18.515625 L 27.3125 18.515625 Z M 27.3125 17.964844 " fill-opacity="1" fill-rule="nonzero"/><path fill="#165b34" d="M 34.761719 27.585938 C 33.582031 27.585938 33.179688 26.984375 32.925781 26.984375 C 32.777344 26.984375 32.660156 27.171875 32.660156 27.320312 C 32.660156 27.773438 33.691406 28.203125 34.734375 28.203125 C 36.097656 28.203125 36.828125 27.488281 37.117188 26.519531 L 36.464844 26.519531 C 36.261719 27.136719 35.800781 27.585938 34.761719 27.585938 Z M 34.761719 27.585938 " fill-opacity="1" fill-rule="nonzero"/><path fill="#165b34" d="M 37.269531 15.957031 C 37.269531 15.792969 37.132812 15.6875 36.945312 15.6875 C 36.773438 15.6875 36.625 15.792969 36.625 15.957031 L 36.625 16.625 C 36.328125 16.101562 35.714844 15.605469 34.828125 15.605469 C 33.515625 15.605469 32.417969 16.707031 32.417969 18.058594 L 32.417969 19.601562 C 32.417969 20.902344 33.527344 22.082031 34.800781 22.082031 C 35.605469 22.082031 36.316406 21.609375 36.609375 21.0625 L 36.609375 22.90625 L 37.269531 22.90625 Z M 36.609375 20.054688 C 36.609375 20.484375 35.859375 21.464844 34.855469 21.464844 C 33.902344 21.464844 33.074219 20.550781 33.074219 19.601562 L 33.074219 18.058594 C 33.074219 17.136719 33.890625 16.222656 34.871094 16.222656 C 35.738281 16.222656 36.609375 16.90625 36.609375 18.058594 Z M 36.609375 20.054688 " fill-opacity="1" fill-rule="nonzero"/><path fill="#165b34" d="M 40.175781 22.09375 C 41.058594 22.09375 41.730469 21.597656 42.1875 21.074219 L 42.1875 21.71875 C 42.1875 21.878906 42.332031 22.015625 42.507812 22.015625 C 42.695312 22.015625 42.828125 21.878906 42.828125 21.71875 L 42.828125 18.179688 C 42.828125 16.855469 42.226562 15.609375 40.511719 15.609375 C 39.679688 15.609375 38.78125 15.929688 38.78125 16.226562 C 38.78125 16.359375 38.890625 16.585938 39.078125 16.585938 C 39.265625 16.585938 39.625 16.210938 40.484375 16.210938 C 41.703125 16.210938 42.171875 17.242188 42.171875 18.183594 L 42.171875 18.53125 L 41.449219 18.53125 C 39.585938 18.53125 38.328125 18.890625 38.328125 20.324219 C 38.328125 21.53125 39.144531 22.09375 40.175781 22.09375 Z M 41.515625 19.066406 L 42.171875 19.066406 L 42.171875 20.054688 C 42.171875 20.644531 41.207031 21.503906 40.269531 21.503906 C 39.546875 21.503906 38.984375 21.128906 38.984375 20.296875 C 38.984375 19.1875 40.203125 19.066406 41.515625 19.066406 Z M 41.515625 19.066406 " fill-opacity="1" fill-rule="nonzero"/><path fill="#165b34" d="M 44.707031 22.011719 C 44.894531 22.011719 45.039062 21.867188 45.039062 21.71875 L 45.039062 12.027344 C 45.039062 11.867188 44.894531 11.746094 44.707031 11.746094 C 44.519531 11.746094 44.382812 11.867188 44.382812 12.027344 L 44.382812 21.71875 C 44.382812 21.867188 44.519531 22.011719 44.707031 22.011719 Z M 44.707031 22.011719 " fill-opacity="1" fill-rule="nonzero"/><path fill="#165b34" d="M 20.335938 23.359375 C 20.335938 23.292969 20.394531 23.261719 20.453125 23.261719 L 21.824219 23.261719 C 21.890625 23.261719 21.921875 23.320312 21.921875 23.375 C 21.921875 23.441406 21.886719 23.5 21.824219 23.5 L 20.59375 23.5 L 20.59375 24.566406 L 21.203125 24.566406 C 21.261719 24.566406 21.296875 24.621094 21.296875 24.683594 C 21.296875 24.734375 21.269531 24.789062 21.203125 24.789062 L 20.59375 24.789062 L 20.59375 26 C 20.59375 26.066406 20.527344 26.097656 20.464844 26.097656 C 20.398438 26.097656 20.335938 26.066406 20.335938 26 Z M 20.335938 23.359375 " fill-opacity="1" fill-rule="nonzero"/><path fill="#165b34" d="M 22.851562 24.988281 L 22.851562 25.996094 C 22.851562 26.054688 22.800781 26.097656 22.730469 26.097656 C 22.664062 26.097656 22.613281 26.054688 22.613281 25.996094 L 22.613281 25.824219 C 22.476562 25.980469 22.289062 26.125 22.027344 26.125 C 21.730469 26.125 21.5 25.960938 21.5 25.613281 C 21.5 25.191406 21.863281 25.082031 22.402344 25.082031 L 22.601562 25.082031 L 22.601562 24.988281 C 22.601562 24.738281 22.476562 24.460938 22.144531 24.460938 C 21.882812 24.460938 21.792969 24.574219 21.730469 24.574219 C 21.664062 24.574219 21.628906 24.496094 21.628906 24.4375 C 21.628906 24.335938 21.90625 24.238281 22.152344 24.238281 C 22.671875 24.238281 22.851562 24.601562 22.851562 24.988281 Z M 22.601562 25.253906 L 22.4375 25.253906 C 22.082031 25.253906 21.75 25.292969 21.75 25.589844 C 21.75 25.816406 21.898438 25.910156 22.089844 25.910156 C 22.335938 25.910156 22.601562 25.679688 22.601562 25.503906 Z M 22.601562 25.253906 " fill-opacity="1" fill-rule="nonzero"/><path fill="#165b34" d="M 24.402344 24.953125 C 24.402344 24.671875 24.199219 24.472656 23.960938 24.472656 C 23.734375 24.472656 23.503906 24.652344 23.503906 24.964844 L 23.503906 25.996094 C 23.503906 26.046875 23.445312 26.097656 23.375 26.097656 C 23.304688 26.097656 23.25 26.046875 23.25 25.996094 L 23.25 24.355469 C 23.25 24.300781 23.304688 24.261719 23.375 24.261719 C 23.441406 24.261719 23.496094 24.300781 23.496094 24.355469 L 23.496094 24.535156 C 23.582031 24.382812 23.753906 24.238281 24.011719 24.238281 C 24.265625 24.238281 24.46875 24.398438 24.5625 24.628906 C 24.699219 24.363281 24.925781 24.238281 25.152344 24.238281 C 25.484375 24.238281 25.804688 24.503906 25.804688 24.964844 L 25.804688 25.996094 C 25.804688 26.046875 25.75 26.097656 25.675781 26.097656 C 25.609375 26.097656 25.550781 26.046875 25.550781 25.996094 L 25.550781 24.964844 C 25.550781 24.640625 25.320312 24.472656 25.109375 24.472656 C 24.882812 24.472656 24.65625 24.65625 24.65625 24.949219 L 24.65625 26 C 24.65625 26.070312 24.589844 26.097656 24.527344 26.097656 C 24.46875 26.097656 24.402344 26.070312 24.402344 26 Z M 24.402344 24.953125 " fill-opacity="1" fill-rule="nonzero"/><path fill="#165b34" d="M 26.488281 23.558594 C 26.488281 23.644531 26.414062 23.71875 26.320312 23.71875 C 26.222656 23.71875 26.144531 23.644531 26.144531 23.558594 C 26.144531 23.472656 26.222656 23.398438 26.320312 23.398438 C 26.414062 23.398438 26.488281 23.472656 26.488281 23.558594 Z M 26.449219 24.355469 L 26.449219 25.996094 C 26.449219 26.046875 26.390625 26.097656 26.320312 26.097656 C 26.25 26.097656 26.195312 26.046875 26.195312 25.996094 L 26.195312 24.355469 C 26.195312 24.300781 26.25 24.261719 26.320312 24.261719 C 26.390625 24.261719 26.449219 24.300781 26.449219 24.355469 Z M 26.449219 24.355469 " fill-opacity="1" fill-rule="nonzero"/><path fill="#165b34" d="M 27.144531 23.230469 L 27.144531 25.996094 C 27.144531 26.046875 27.089844 26.097656 27.015625 26.097656 C 26.945312 26.097656 26.890625 26.046875 26.890625 25.996094 L 26.890625 23.230469 C 26.890625 23.175781 26.945312 23.136719 27.015625 23.136719 C 27.089844 23.136719 27.144531 23.175781 27.144531 23.230469 Z M 27.144531 23.230469 " fill-opacity="1" fill-rule="nonzero"/><path fill="#165b34" d="M 27.40625 24.394531 C 27.398438 24.382812 27.394531 24.371094 27.394531 24.359375 C 27.394531 24.292969 27.484375 24.238281 27.550781 24.238281 C 27.589844 24.238281 27.628906 24.253906 27.636719 24.292969 L 28.171875 25.722656 L 28.671875 24.292969 C 28.683594 24.253906 28.722656 24.238281 28.753906 24.238281 C 28.816406 24.238281 28.910156 24.289062 28.910156 24.363281 C 28.910156 24.371094 28.910156 24.386719 28.902344 24.394531 L 28.300781 26.023438 C 28.144531 26.441406 27.953125 26.996094 27.511719 26.996094 C 27.445312 26.996094 27.398438 26.96875 27.398438 26.882812 C 27.398438 26.824219 27.417969 26.769531 27.472656 26.769531 C 27.71875 26.769531 27.941406 26.421875 28.035156 26.019531 Z M 27.40625 24.394531 " fill-opacity="1" fill-rule="nonzero"/><path fill="#165b34" d="M 29.882812 23.359375 C 29.882812 23.292969 29.941406 23.261719 30 23.261719 L 31.371094 23.261719 C 31.4375 23.261719 31.46875 23.320312 31.46875 23.375 C 31.46875 23.441406 31.433594 23.5 31.371094 23.5 L 30.140625 23.5 L 30.140625 24.566406 L 30.753906 24.566406 C 30.808594 24.566406 30.84375 24.621094 30.84375 24.683594 C 30.84375 24.734375 30.816406 24.789062 30.753906 24.789062 L 30.140625 24.789062 L 30.140625 26 C 30.140625 26.066406 30.074219 26.097656 30.011719 26.097656 C 29.945312 26.097656 29.882812 26.066406 29.882812 26 Z M 29.882812 23.359375 " fill-opacity="1" fill-rule="nonzero"/><path fill="#165b34" d="M 32.652344 24.964844 L 32.652344 25.386719 C 32.652344 25.769531 32.308594 26.125 31.914062 26.125 C 31.519531 26.125 31.179688 25.773438 31.179688 25.386719 L 31.179688 24.964844 C 31.179688 24.574219 31.507812 24.238281 31.914062 24.238281 C 32.308594 24.238281 32.652344 24.566406 32.652344 24.964844 Z M 32.402344 24.964844 C 32.402344 24.714844 32.183594 24.472656 31.914062 24.472656 C 31.640625 24.472656 31.433594 24.714844 31.433594 24.964844 L 31.433594 25.386719 C 31.433594 25.648438 31.644531 25.890625 31.914062 25.890625 C 32.183594 25.890625 32.402344 25.648438 32.402344 25.386719 Z M 32.402344 24.964844 " fill-opacity="1" fill-rule="nonzero"/><path fill="#165b34" d="M 32.972656 25.394531 L 32.972656 24.359375 C 32.972656 24.3125 33.027344 24.261719 33.097656 24.261719 C 33.164062 24.261719 33.222656 24.3125 33.222656 24.359375 L 33.222656 25.394531 C 33.222656 25.648438 33.4375 25.890625 33.707031 25.890625 C 33.976562 25.890625 34.191406 25.652344 34.191406 25.394531 L 34.191406 24.355469 C 34.191406 24.304688 34.25 24.261719 34.320312 24.261719 C 34.390625 24.261719 34.445312 24.304688 34.445312 24.355469 L 34.445312 25.394531 C 34.445312 25.785156 34.105469 26.125 33.707031 26.125 C 33.300781 26.125 32.972656 25.777344 32.972656 25.394531 Z M 32.972656 25.394531 " fill-opacity="1" fill-rule="nonzero"/><path fill="#165b34" d="M 35.089844 25.996094 C 35.089844 26.046875 35.03125 26.097656 34.960938 26.097656 C 34.886719 26.097656 34.835938 26.046875 34.835938 25.996094 L 34.835938 24.355469 C 34.835938 24.300781 34.886719 24.261719 34.960938 24.261719 C 35.023438 24.261719 35.078125 24.300781 35.078125 24.355469 L 35.078125 24.535156 C 35.160156 24.382812 35.335938 24.238281 35.597656 24.238281 C 35.96875 24.238281 36.289062 24.566406 36.289062 24.964844 L 36.289062 25.996094 C 36.289062 26.0625 36.222656 26.097656 36.160156 26.097656 C 36.101562 26.097656 36.035156 26.0625 36.035156 25.996094 L 36.035156 24.964844 C 36.035156 24.714844 35.816406 24.472656 35.550781 24.472656 C 35.320312 24.472656 35.089844 24.652344 35.089844 24.964844 Z M 35.089844 25.996094 " fill-opacity="1" fill-rule="nonzero"/><path fill="#165b34" d="M 38.070312 23.230469 L 38.070312 25.996094 C 38.070312 26.046875 38.019531 26.097656 37.949219 26.097656 C 37.882812 26.097656 37.828125 26.046875 37.828125 25.996094 L 37.828125 25.824219 C 37.746094 25.984375 37.539062 26.125 37.296875 26.125 C 36.929688 26.125 36.609375 25.769531 36.609375 25.386719 L 36.609375 24.964844 C 36.609375 24.566406 36.925781 24.238281 37.304688 24.238281 C 37.5625 24.238281 37.734375 24.382812 37.816406 24.535156 L 37.816406 23.230469 C 37.816406 23.175781 37.875 23.136719 37.949219 23.136719 C 38.019531 23.136719 38.070312 23.175781 38.070312 23.230469 Z M 36.863281 25.386719 C 36.863281 25.644531 37.085938 25.890625 37.34375 25.890625 C 37.617188 25.890625 37.820312 25.625 37.820312 25.507812 L 37.820312 24.964844 C 37.820312 24.65625 37.582031 24.472656 37.351562 24.472656 C 37.082031 24.472656 36.863281 24.714844 36.863281 24.964844 Z M 36.863281 25.386719 " fill-opacity="1" fill-rule="nonzero"/><path fill="#165b34" d="M 39.707031 24.988281 L 39.707031 25.996094 C 39.707031 26.054688 39.65625 26.097656 39.582031 26.097656 C 39.515625 26.097656 39.46875 26.054688 39.46875 25.996094 L 39.46875 25.824219 C 39.332031 25.980469 39.140625 26.125 38.882812 26.125 C 38.585938 26.125 38.355469 25.960938 38.355469 25.613281 C 38.355469 25.191406 38.71875 25.082031 39.257812 25.082031 L 39.457031 25.082031 L 39.457031 24.988281 C 39.457031 24.738281 39.332031 24.460938 38.996094 24.460938 C 38.738281 24.460938 38.644531 24.574219 38.582031 24.574219 C 38.515625 24.574219 38.480469 24.496094 38.480469 24.4375 C 38.480469 24.335938 38.757812 24.238281 39.003906 24.238281 C 39.523438 24.238281 39.707031 24.601562 39.707031 24.988281 Z M 39.457031 25.253906 L 39.292969 25.253906 C 38.9375 25.253906 38.605469 25.292969 38.605469 25.589844 C 38.605469 25.816406 38.753906 25.910156 38.941406 25.910156 C 39.191406 25.910156 39.453125 25.679688 39.453125 25.503906 L 39.453125 25.253906 Z M 39.457031 25.253906 " fill-opacity="1" fill-rule="nonzero"/><path fill="#165b34" d="M 40.347656 25.527344 C 40.347656 25.777344 40.441406 25.867188 40.707031 25.867188 L 40.816406 25.867188 C 40.886719 25.867188 40.933594 25.921875 40.933594 25.980469 C 40.933594 26.042969 40.886719 26.097656 40.816406 26.097656 L 40.707031 26.097656 C 40.308594 26.097656 40.097656 25.925781 40.097656 25.527344 L 40.097656 23.484375 C 40.097656 23.429688 40.164062 23.390625 40.21875 23.390625 C 40.28125 23.390625 40.347656 23.429688 40.347656 23.484375 L 40.347656 24.261719 L 40.847656 24.261719 C 40.898438 24.261719 40.9375 24.3125 40.9375 24.367188 C 40.9375 24.421875 40.898438 24.472656 40.847656 24.472656 L 40.347656 24.472656 Z M 40.347656 25.527344 " fill-opacity="1" fill-rule="nonzero"/><path fill="#165b34" d="M 41.46875 23.558594 C 41.46875 23.644531 41.394531 23.71875 41.300781 23.71875 C 41.203125 23.71875 41.125 23.644531 41.125 23.558594 C 41.125 23.472656 41.203125 23.398438 41.300781 23.398438 C 41.394531 23.398438 41.46875 23.472656 41.46875 23.558594 Z M 41.429688 24.355469 L 41.429688 25.996094 C 41.429688 26.046875 41.371094 26.097656 41.300781 26.097656 C 41.230469 26.097656 41.175781 26.046875 41.175781 25.996094 L 41.175781 24.355469 C 41.175781 24.300781 41.230469 24.261719 41.300781 24.261719 C 41.371094 24.261719 41.429688 24.300781 41.429688 24.355469 Z M 41.429688 24.355469 " fill-opacity="1" fill-rule="nonzero"/><path fill="#165b34" d="M 43.242188 24.964844 L 43.242188 25.386719 C 43.242188 25.769531 42.894531 26.125 42.5 26.125 C 42.109375 26.125 41.765625 25.773438 41.765625 25.386719 L 41.765625 24.964844 C 41.765625 24.574219 42.097656 24.238281 42.5 24.238281 C 42.894531 24.238281 43.242188 24.566406 43.242188 24.964844 Z M 42.988281 24.964844 C 42.988281 24.714844 42.769531 24.472656 42.5 24.472656 C 42.226562 24.472656 42.019531 24.714844 42.019531 24.964844 L 42.019531 25.386719 C 42.019531 25.648438 42.230469 25.890625 42.5 25.890625 C 42.769531 25.890625 42.988281 25.648438 42.988281 25.386719 Z M 42.988281 24.964844 " fill-opacity="1" fill-rule="nonzero"/><path fill="#165b34" d="M 43.828125 25.996094 C 43.828125 26.046875 43.769531 26.097656 43.703125 26.097656 C 43.628906 26.097656 43.578125 26.046875 43.578125 25.996094 L 43.578125 24.355469 C 43.578125 24.300781 43.628906 24.261719 43.703125 24.261719 C 43.761719 24.261719 43.816406 24.300781 43.816406 24.355469 L 43.816406 24.535156 C 43.898438 24.382812 44.078125 24.238281 44.335938 24.238281 C 44.710938 24.238281 45.027344 24.566406 45.027344 24.964844 L 45.027344 25.996094 C 45.027344 26.0625 44.960938 26.097656 44.898438 26.097656 C 44.84375 26.097656 44.777344 26.0625 44.777344 25.996094 L 44.777344 24.964844 C 44.777344 24.714844 44.558594 24.472656 44.292969 24.472656 C 44.0625 24.472656 43.828125 24.652344 43.828125 24.964844 Z M 43.828125 25.996094 " fill-opacity="1" fill-rule="nonzero"/><path fill="#318f63" d="M 53.230469 12.363281 L 53.167969 12.222656 C 54.738281 11.496094 56.671875 11.878906 56.753906 11.894531 L 56.722656 12.046875 C 56.703125 12.042969 54.753906 11.660156 53.230469 12.363281 Z M 53.230469 12.363281 " fill-opacity="1" fill-rule="nonzero"/><path fill="#318f63" d="M 53.21875 12.28125 L 53.074219 12.226562 C 53.933594 9.941406 55.925781 7.96875 55.941406 7.945312 L 56.050781 8.058594 C 56.03125 8.078125 54.066406 10.027344 53.21875 12.28125 Z M 53.21875 12.28125 " fill-opacity="1" fill-rule="nonzero"/><path fill="#318f63" d="M 53.222656 12.347656 L 53.085938 12.273438 C 54.351562 9.96875 58.039062 8.871094 58.078125 8.859375 L 58.121094 9.007812 C 58.085938 9.019531 54.453125 10.097656 53.222656 12.347656 Z M 53.222656 12.347656 " fill-opacity="1" fill-rule="nonzero"/><path fill="#318f63" d="M 53.074219 12.289062 C 49.105469 6.84375 43.320312 7.789062 39.867188 8.355469 C 39.515625 8.410156 39.191406 8.464844 38.898438 8.503906 L 38.878906 8.351562 C 39.167969 8.308594 39.492188 8.257812 39.839844 8.199219 C 43.332031 7.632812 49.175781 6.679688 53.199219 12.199219 Z M 53.074219 12.289062 " fill-opacity="1" fill-rule="nonzero"/><path fill="#318f63" d="M 53.679688 18.179688 C 52.726562 14.328125 53.070312 12.59375 53.085938 12.523438 L 53.238281 12.554688 C 53.234375 12.570312 52.886719 14.332031 53.828125 18.140625 Z M 53.679688 18.179688 " fill-opacity="1" fill-rule="nonzero"/><path fill="#318f63" d="M 53.445312 18.214844 C 53.484375 18.386719 53.65625 18.496094 53.828125 18.453125 C 54 18.414062 54.109375 18.242188 54.070312 18.070312 C 54.027344 17.898438 53.855469 17.792969 53.683594 17.832031 C 53.511719 17.871094 53.40625 18.042969 53.445312 18.214844 Z M 53.445312 18.214844 " fill-opacity="1" fill-rule="nonzero"/><path fill="#318f63" d="M 53.0625 12.28125 C 52.53125 7.835938 53.679688 4.753906 53.691406 4.722656 L 53.835938 4.777344 C 53.824219 4.808594 52.6875 7.859375 53.214844 12.265625 Z M 53.0625 12.28125 " fill-opacity="1" fill-rule="nonzero"/><path fill="#318f63" d="M 53.167969 12.433594 L 53.121094 12.386719 C 52.308594 11.5625 49.21875 9.011719 43.539062 10.660156 L 43.492188 10.511719 C 44.101562 10.335938 45.722656 9.929688 47.589844 9.996094 C 49.898438 10.082031 51.78125 10.832031 53.183594 12.230469 C 53.46875 12.042969 54.800781 11.253906 57.003906 11.371094 L 56.996094 11.523438 C 54.609375 11.398438 53.234375 12.382812 53.222656 12.394531 Z M 53.167969 12.433594 " fill-opacity="1" fill-rule="nonzero"/><path fill="#318f63" d="M 43.625 10.886719 C 43.457031 10.941406 43.277344 10.84375 43.226562 10.675781 C 43.175781 10.507812 43.269531 10.328125 43.4375 10.277344 C 43.605469 10.222656 43.785156 10.320312 43.839844 10.488281 C 43.890625 10.65625 43.792969 10.835938 43.625 10.886719 Z M 43.625 10.886719 " fill-opacity="1" fill-rule="nonzero"/><path fill="#318f63" d="M 56.976562 11.777344 C 57.152344 11.785156 57.300781 11.644531 57.304688 11.46875 C 57.3125 11.292969 57.171875 11.144531 56.996094 11.140625 C 56.820312 11.132812 56.671875 11.273438 56.667969 11.449219 C 56.660156 11.625 56.800781 11.773438 56.976562 11.777344 Z M 56.976562 11.777344 " fill-opacity="1" fill-rule="nonzero"/><path fill="#a6c9ac" d="M 50.230469 22.671875 L 50.074219 22.660156 C 50.613281 16.640625 52.589844 12.917969 52.984375 12.230469 C 51.261719 12.304688 47.839844 16.558594 47.15625 17.425781 L 47.035156 17.332031 C 48.03125 16.0625 51.414062 11.933594 53.125 12.082031 L 53.25 12.089844 L 53.183594 12.199219 C 53.160156 12.238281 50.824219 16.054688 50.230469 22.671875 Z M 50.230469 22.671875 " fill-opacity="1" fill-rule="nonzero"/><path fill="#a6c9ac" d="M 47.359375 17.566406 C 47.25 17.707031 47.050781 17.730469 46.910156 17.621094 C 46.773438 17.507812 46.75 17.308594 46.859375 17.167969 C 46.96875 17.03125 47.167969 17.007812 47.308594 17.117188 C 47.449219 17.226562 47.472656 17.429688 47.359375 17.566406 Z M 47.359375 17.566406 " fill-opacity="1" fill-rule="nonzero"/><path fill="#318f63" d="M 55.363281 16.886719 C 54.96875 16.441406 53.625 14.796875 52.984375 12.21875 L 53.136719 12.179688 C 53.765625 14.722656 55.089844 16.34375 55.480469 16.78125 Z M 55.363281 16.886719 " fill-opacity="1" fill-rule="nonzero"/><path fill="#318f63" d="M 55.644531 16.597656 C 55.765625 16.726562 55.761719 16.929688 55.632812 17.050781 C 55.507812 17.175781 55.304688 17.167969 55.183594 17.042969 C 55.058594 16.914062 55.0625 16.710938 55.191406 16.589844 C 55.320312 16.464844 55.523438 16.472656 55.644531 16.597656 Z M 55.644531 16.597656 " fill-opacity="1" fill-rule="nonzero"/><path fill="#318f63" d="M 53.136719 12.339844 C 52.867188 9.597656 55.019531 7.066406 55.042969 7.039062 L 55.160156 7.140625 C 55.136719 7.164062 53.027344 9.648438 53.289062 12.324219 Z M 53.136719 12.339844 " fill-opacity="1" fill-rule="nonzero"/><path fill="#318f63" d="M 49.394531 22.84375 L 49.242188 22.824219 C 49.25 22.746094 50.226562 14.996094 53.0625 12.28125 L 53.171875 12.394531 C 50.371094 15.066406 49.402344 22.765625 49.394531 22.84375 Z M 49.394531 22.84375 " fill-opacity="1" fill-rule="nonzero"/><path fill="#318f63" d="M 52.882812 20.203125 C 52.1875 15.59375 53.058594 12.34375 53.070312 12.3125 L 53.21875 12.351562 C 53.207031 12.382812 52.347656 15.605469 53.035156 20.179688 Z M 52.882812 20.203125 " fill-opacity="1" fill-rule="nonzero"/><path fill="#318f63" d="M 47.566406 15.871094 L 47.460938 15.757812 C 47.613281 15.621094 51.214844 12.394531 53.191406 12.328125 L 53.199219 12.480469 C 51.277344 12.546875 47.601562 15.839844 47.566406 15.871094 Z M 47.566406 15.871094 " fill-opacity="1" fill-rule="nonzero"/><path fill="#318f63" d="M 53.183594 12.367188 L 53.070312 12.265625 C 54.335938 10.878906 55.699219 10.277344 56.625 10.019531 C 57.625 9.738281 58.316406 9.785156 58.347656 9.785156 L 58.335938 9.941406 C 58.308594 9.941406 55.554688 9.773438 53.183594 12.367188 Z M 53.183594 12.367188 " fill-opacity="1" fill-rule="nonzero"/><path fill="#318f63" d="M 48.019531 20.449219 L 47.875 20.402344 C 47.890625 20.351562 49.523438 15.410156 53.175781 12.257812 L 53.277344 12.375 C 49.660156 15.5 48.035156 20.402344 48.019531 20.449219 Z M 48.019531 20.449219 " fill-opacity="1" fill-rule="nonzero"/><path fill="#a6c9ac" d="M 55.558594 15.710938 C 55.46875 15.652344 53.34375 14.265625 53.121094 12.410156 C 52.6875 8.8125 54.449219 6.300781 54.46875 6.277344 L 54.59375 6.367188 C 54.578125 6.390625 52.851562 8.855469 53.277344 12.390625 C 53.492188 14.171875 55.621094 15.566406 55.644531 15.582031 Z M 55.558594 15.710938 " fill-opacity="1" fill-rule="nonzero"/><path fill="#318f63" d="M 47.382812 15.058594 C 47.375 15.058594 47.367188 15.054688 47.359375 15.054688 L 47.378906 14.976562 L 47.367188 14.902344 C 47.410156 14.886719 47.617188 14.746094 47.835938 14.589844 C 48.941406 13.824219 51.523438 12.019531 53.171875 12.285156 L 53.148438 12.4375 C 51.5625 12.179688 49.011719 13.960938 47.925781 14.71875 C 47.519531 15.003906 47.4375 15.058594 47.382812 15.058594 Z M 47.382812 15.058594 " fill-opacity="1" fill-rule="nonzero"/><path fill="#318f63" d="M 53.089844 12.566406 C 49.6875 3.996094 46.378906 1.761719 45.445312 1.28125 L 45.515625 1.144531 C 46.460938 1.628906 49.8125 3.890625 53.234375 12.507812 Z M 53.089844 12.566406 " fill-opacity="1" fill-rule="nonzero"/><path fill="#318f63" d="M 45.351562 1.515625 C 45.191406 1.441406 45.125 1.25 45.199219 1.089844 C 45.277344 0.929688 45.46875 0.863281 45.628906 0.9375 C 45.789062 1.015625 45.855469 1.207031 45.777344 1.363281 C 45.703125 1.523438 45.511719 1.59375 45.351562 1.515625 Z M 45.351562 1.515625 " fill-opacity="1" fill-rule="nonzero"/><path fill="#a6c9ac" d="M 53.191406 12.675781 C 48.984375 4.417969 40.273438 3.597656 40.1875 3.589844 L 40.199219 3.4375 C 40.285156 3.445312 49.082031 4.273438 53.332031 12.601562 Z M 53.191406 12.675781 " fill-opacity="1" fill-rule="nonzero"/><path fill="#318f63" d="M 53.132812 12.453125 C 44.894531 2.210938 41.34375 2.78125 41.3125 2.789062 L 41.28125 2.636719 C 41.425781 2.605469 44.933594 2.011719 53.253906 12.355469 Z M 53.132812 12.453125 " fill-opacity="1" fill-rule="nonzero"/><path fill="#318f63" d="M 53.128906 12.691406 L 51.683594 4.863281 L 51.835938 4.835938 L 53.167969 12.046875 C 53.949219 9.996094 56.523438 8.683594 56.636719 8.625 L 56.707031 8.761719 C 56.679688 8.777344 53.839844 10.226562 53.222656 12.375 Z M 53.128906 12.691406 " fill-opacity="1" fill-rule="nonzero"/><path fill="#318f63" d="M 48.15625 12.960938 L 48.097656 12.816406 C 49.027344 12.453125 51.390625 11.675781 53.21875 12.332031 L 53.167969 12.476562 C 51.335938 11.820312 48.867188 12.683594 48.15625 12.960938 Z M 48.15625 12.960938 " fill-opacity="1" fill-rule="nonzero"/><path fill="#318f63" d="M 48.261719 13.183594 C 48.097656 13.25 47.910156 13.171875 47.847656 13.007812 C 47.78125 12.839844 47.863281 12.65625 48.027344 12.589844 C 48.191406 12.523438 48.375 12.605469 48.441406 12.769531 C 48.507812 12.933594 48.425781 13.121094 48.261719 13.183594 Z M 48.261719 13.183594 " fill-opacity="1" fill-rule="nonzero"/><path fill="#318f63" d="M 50.007812 18.597656 L 49.859375 18.554688 C 50.230469 17.285156 51.5625 13.078125 53.101562 12.207031 L 53.175781 12.339844 C 51.6875 13.183594 50.375 17.34375 50.007812 18.597656 Z M 50.007812 18.597656 " fill-opacity="1" fill-rule="nonzero"/><path fill="#318f63" d="M 50.246094 18.652344 C 50.195312 18.820312 50.019531 18.917969 49.847656 18.867188 C 49.679688 18.816406 49.582031 18.636719 49.632812 18.46875 C 49.683594 18.300781 49.863281 18.203125 50.03125 18.253906 C 50.199219 18.304688 50.296875 18.484375 50.246094 18.652344 Z M 50.246094 18.652344 " fill-opacity="1" fill-rule="nonzero"/><path fill="#318f63" d="M 53.253906 13.097656 C 52.511719 10.675781 48.417969 7.769531 47.179688 6.9375 L 47.265625 6.808594 C 48.515625 7.652344 52.648438 10.582031 53.402344 13.050781 Z M 53.253906 13.097656 " fill-opacity="1" fill-rule="nonzero"/><path fill="#318f63" d="M 47.054688 7.152344 C 46.910156 7.050781 46.871094 6.851562 46.972656 6.707031 C 47.070312 6.5625 47.269531 6.523438 47.414062 6.625 C 47.5625 6.722656 47.597656 6.921875 47.5 7.066406 C 47.398438 7.214844 47.199219 7.25 47.054688 7.152344 Z M 47.054688 7.152344 " fill-opacity="1" fill-rule="nonzero"/><path fill="#318f63" d="M 53.054688 12.394531 C 50.957031 8.003906 43.230469 6.480469 43.152344 6.464844 L 43.179688 6.3125 C 43.261719 6.328125 51.0625 7.863281 53.195312 12.328125 Z M 53.054688 12.394531 " fill-opacity="1" fill-rule="nonzero"/><path fill="#318f63" d="M 49.042969 15.945312 L 48.929688 15.839844 C 49.542969 15.179688 51.644531 12.972656 53.09375 12.261719 L 53.160156 12.402344 C 51.734375 13.101562 49.648438 15.289062 49.042969 15.945312 Z M 49.042969 15.945312 " fill-opacity="1" fill-rule="nonzero"/><path fill="#318f63" d="M 49.234375 16.097656 C 49.113281 16.226562 48.910156 16.234375 48.78125 16.113281 C 48.652344 15.996094 48.644531 15.792969 48.765625 15.664062 C 48.886719 15.535156 49.089844 15.523438 49.21875 15.644531 C 49.347656 15.765625 49.355469 15.96875 49.234375 16.097656 Z M 49.234375 16.097656 " fill-opacity="1" fill-rule="nonzero"/><path fill="#a6c9ac" d="M 46.511719 13.273438 L 46.441406 13.140625 C 46.472656 13.121094 49.679688 11.429688 52.976562 12.195312 L 52.941406 12.347656 C 49.699219 11.59375 46.542969 13.257812 46.511719 13.273438 Z M 46.511719 13.273438 " fill-opacity="1" fill-rule="nonzero"/><path fill="#318f63" d="M 55.304688 14.550781 C 55.21875 14.488281 53.238281 13.085938 53.050781 12.265625 L 53.203125 12.230469 C 53.375 12.992188 55.375 14.410156 55.394531 14.421875 Z M 55.304688 14.550781 " fill-opacity="1" fill-rule="nonzero"/><path fill="#318f63" d="M 55.359375 13.777344 C 55.3125 13.769531 54.136719 13.5 53.054688 12.335938 L 53.167969 12.230469 C 54.214844 13.359375 55.378906 13.625 55.390625 13.628906 Z M 55.359375 13.777344 " fill-opacity="1" fill-rule="nonzero"/><path fill="#318f63" d="M 55.65625 13.148438 C 55.644531 13.136719 54.402344 12.304688 53.128906 12.328125 L 53.125 12.171875 C 54.445312 12.136719 55.691406 12.984375 55.742188 13.019531 Z M 55.65625 13.148438 " fill-opacity="1" fill-rule="nonzero"/><path fill="#318f63" d="M 55.3125 14.851562 C 55.21875 14.804688 52.976562 13.617188 53.082031 12.390625 L 53.238281 12.40625 C 53.140625 13.527344 55.363281 14.707031 55.386719 14.714844 Z M 55.3125 14.851562 " fill-opacity="1" fill-rule="nonzero"/><path fill="#a6c9ac" d="M 53.0625 12.6875 L 53.019531 12.417969 C 53.011719 12.390625 52.550781 9.589844 51.007812 6.863281 C 49.585938 4.355469 46.9375 1.402344 42.367188 1.550781 L 42.363281 1.398438 C 47.015625 1.242188 49.703125 4.242188 51.144531 6.789062 C 52.445312 9.085938 52.984375 11.4375 53.128906 12.164062 C 53.496094 11.496094 54.886719 9.410156 58.394531 8.367188 L 58.441406 8.515625 C 56.289062 9.15625 54.96875 10.183594 54.242188 10.9375 C 53.453125 11.753906 53.167969 12.425781 53.167969 12.433594 Z M 53.0625 12.6875 " fill-opacity="1" fill-rule="nonzero"/><path fill="#a6c9ac" d="M 58.308594 8.148438 C 58.480469 8.097656 58.660156 8.191406 58.710938 8.359375 C 58.761719 8.53125 58.667969 8.710938 58.496094 8.761719 C 58.328125 8.8125 58.148438 8.71875 58.097656 8.546875 C 58.046875 8.378906 58.140625 8.199219 58.308594 8.148438 Z M 58.308594 8.148438 " fill-opacity="1" fill-rule="nonzero"/><path fill="#185c34" d="M 53.074219 12.339844 C 52.101562 10.164062 49.632812 8.695312 45.738281 7.976562 C 42.640625 7.40625 39.5625 7.507812 38.695312 7.550781 L 38.6875 7.398438 C 40.699219 7.292969 50.871094 7.042969 53.214844 12.277344 Z M 53.074219 12.339844 " fill-opacity="1" fill-rule="nonzero"/><path fill="#185c34" d="M 38.726562 7.792969 C 38.546875 7.804688 38.398438 7.667969 38.386719 7.492188 C 38.378906 7.316406 38.515625 7.164062 38.691406 7.15625 C 38.867188 7.144531 39.019531 7.28125 39.027344 7.457031 C 39.035156 7.632812 38.902344 7.785156 38.726562 7.792969 Z M 38.726562 7.792969 " fill-opacity="1" fill-rule="nonzero"/><path fill="#185c34" d="M 53.035156 12.316406 C 48.8125 9.242188 44.414062 11.027344 44.371094 11.046875 L 44.3125 10.902344 C 44.355469 10.882812 48.832031 9.066406 53.128906 12.191406 Z M 53.035156 12.316406 " fill-opacity="1" fill-rule="nonzero"/><path fill="#185c34" d="M 55.617188 16.472656 C 55.601562 16.460938 54.136719 15.191406 53.074219 12.53125 L 53.214844 12.476562 C 54.265625 15.097656 55.703125 16.34375 55.71875 16.355469 Z M 55.617188 16.472656 " fill-opacity="1" fill-rule="nonzero"/><path fill="#185c34" d="M 51.902344 21.761719 L 51.746094 21.761719 C 51.757812 19.800781 51.886719 13.324219 53.105469 12.371094 L 53.199219 12.496094 C 52.007812 13.425781 51.910156 20.378906 51.902344 21.761719 Z M 51.902344 21.761719 " fill-opacity="1" fill-rule="nonzero"/><path fill="#185c34" d="M 52.148438 21.75 C 52.144531 21.925781 52 22.066406 51.824219 22.066406 C 51.648438 22.0625 51.503906 21.917969 51.507812 21.742188 C 51.507812 21.5625 51.65625 21.421875 51.832031 21.425781 C 52.007812 21.425781 52.148438 21.570312 52.148438 21.75 Z M 52.148438 21.75 " fill-opacity="1" fill-rule="nonzero"/><path fill="#185c34" d="M 53.046875 12.296875 C 49.003906 8.015625 45.429688 6.25 43.140625 5.519531 C 40.660156 4.730469 39.117188 4.957031 39.101562 4.960938 L 39.078125 4.808594 C 39.140625 4.796875 45.367188 3.933594 53.160156 12.191406 Z M 53.046875 12.296875 " fill-opacity="1" fill-rule="nonzero"/><path fill="#185c34" d="M 54.019531 16.164062 C 53.976562 16.050781 52.988281 13.425781 53.070312 12.375 C 53.226562 10.335938 54.4375 8.859375 54.804688 8.457031 L 54.917969 8.558594 C 54.558594 8.953125 53.375 10.398438 53.222656 12.390625 C 53.144531 13.402344 54.152344 16.082031 54.160156 16.109375 Z M 54.019531 16.164062 " fill-opacity="1" fill-rule="nonzero"/><path fill="#185c34" d="M 54.625 8.292969 C 54.75 8.167969 54.953125 8.167969 55.078125 8.292969 C 55.203125 8.417969 55.203125 8.621094 55.078125 8.746094 C 54.953125 8.871094 54.75 8.871094 54.625 8.746094 C 54.5 8.621094 54.5 8.417969 54.625 8.292969 Z M 54.625 8.292969 " fill-opacity="1" fill-rule="nonzero"/><path fill="#185c34" d="M 50.632812 13.871094 L 50.539062 13.746094 C 50.613281 13.691406 52.34375 12.375 53.191406 12.160156 L 53.226562 12.308594 C 52.410156 12.515625 50.652344 13.855469 50.632812 13.871094 Z M 50.632812 13.871094 " fill-opacity="1" fill-rule="nonzero"/><path fill="#185c34" d="M 47.679688 18.960938 L 47.546875 18.882812 C 47.566406 18.847656 49.730469 15.03125 53.046875 12.34375 L 53.144531 12.464844 C 49.851562 15.132812 47.703125 18.921875 47.679688 18.960938 Z M 47.679688 18.960938 " fill-opacity="1" fill-rule="nonzero"/><path fill="#185c34" d="M 53.023438 12.269531 C 51.652344 9.054688 49.28125 4.800781 45.804688 2.78125 C 43.730469 1.578125 42.222656 1.75 42.207031 1.75 L 42.1875 1.597656 C 42.25 1.589844 43.753906 1.417969 45.871094 2.640625 C 47.8125 3.765625 50.65625 6.335938 53.167969 12.207031 Z M 53.023438 12.269531 " fill-opacity="1" fill-rule="nonzero"/><path fill="#185c34" d="M 55.550781 13.527344 C 54.761719 13.027344 53.414062 12.273438 53.164062 12.378906 L 53.101562 12.238281 C 53.503906 12.066406 55.28125 13.171875 55.632812 13.394531 Z M 55.550781 13.527344 " fill-opacity="1" fill-rule="nonzero"/><path fill="#edc31b" d="M 47.1875 14.195312 L 47.082031 14.078125 C 47.109375 14.054688 49.582031 11.894531 53.070312 12.246094 L 53.054688 12.398438 C 49.632812 12.054688 47.210938 14.171875 47.1875 14.195312 Z M 47.1875 14.195312 " fill-opacity="1" fill-rule="nonzero"/><path fill="#edc31b" d="M 48.765625 22.417969 L 48.609375 22.402344 C 49.15625 16.894531 52.515625 12.894531 53.023438 12.316406 C 52.527344 12.035156 49.746094 10.617188 46.328125 12.011719 L 46.273438 11.871094 C 50.105469 10.304688 53.15625 12.214844 53.183594 12.234375 L 53.261719 12.285156 L 53.199219 12.351562 C 53.160156 12.394531 49.347656 16.542969 48.765625 22.417969 Z M 48.765625 22.417969 " fill-opacity="1" fill-rule="nonzero"/><path fill="#edc31b" d="M 53.082031 12.164062 L 52.925781 12.011719 C 52.875 11.960938 47.78125 7.066406 40.125 10.371094 L 40.0625 10.226562 C 44.113281 8.480469 47.421875 9.027344 49.488281 9.792969 C 51.285156 10.460938 52.472656 11.410156 52.878906 11.761719 L 51.878906 2.820312 L 52.035156 2.804688 Z M 53.082031 12.164062 " fill-opacity="1" fill-rule="nonzero"/><path fill="#edc31b" d="M 53.101562 12.296875 C 53.050781 12.191406 48.191406 1.871094 41.207031 3.226562 L 41.175781 3.074219 C 48.28125 1.695312 53.191406 12.125 53.242188 12.230469 Z M 53.101562 12.296875 " fill-opacity="1" fill-rule="nonzero"/><path fill="#edc31b" d="M 41.269531 3.46875 C 41.09375 3.5 40.925781 3.386719 40.894531 3.214844 C 40.863281 3.039062 40.976562 2.871094 41.148438 2.839844 C 41.324219 2.804688 41.492188 2.921875 41.523438 3.09375 C 41.554688 3.269531 41.441406 3.4375 41.269531 3.46875 Z M 41.269531 3.46875 " fill-opacity="1" fill-rule="nonzero"/><path fill="#edc31b" d="M 53.269531 12.308594 L 53.125 12.253906 C 54.171875 9.5625 56.347656 8.5 56.371094 8.492188 L 56.4375 8.632812 C 56.414062 8.640625 54.289062 9.679688 53.269531 12.308594 Z M 53.269531 12.308594 " fill-opacity="1" fill-rule="nonzero"/><path fill="#edc31b" d="M 53.148438 12.464844 L 52.976562 11.898438 C 52.875 11.546875 50.386719 3.402344 38.804688 5.460938 L 38.777344 5.308594 C 49.023438 3.488281 52.242188 9.582031 52.957031 11.378906 L 52.691406 2.917969 L 52.847656 2.914062 Z M 53.148438 12.464844 " fill-opacity="1" fill-rule="nonzero"/><path fill="#edc31b" d="M 52.449219 2.941406 C 52.445312 2.765625 52.582031 2.617188 52.761719 2.613281 C 52.9375 2.605469 53.085938 2.746094 53.089844 2.921875 C 53.097656 3.097656 52.957031 3.246094 52.78125 3.253906 C 52.601562 3.257812 52.457031 3.117188 52.449219 2.941406 Z M 52.449219 2.941406 " fill-opacity="1" fill-rule="nonzero"/><path fill="#edc31b" d="M 53.058594 12.363281 C 50.277344 7.78125 39.410156 9.222656 39.300781 9.238281 L 39.28125 9.085938 C 39.390625 9.070312 50.355469 7.617188 53.191406 12.285156 Z M 53.058594 12.363281 " fill-opacity="1" fill-rule="nonzero"/><path fill="#edc31b" d="M 53.203125 12.371094 L 53.105469 12.25 C 55.855469 10.046875 58.160156 10.21875 58.183594 10.222656 L 58.167969 10.375 C 58.144531 10.375 55.902344 10.210938 53.203125 12.371094 Z M 53.203125 12.371094 " fill-opacity="1" fill-rule="nonzero"/><path fill="#edc31b" d="M 53.066406 12.246094 C 52.335938 9.667969 49.628906 6.507812 45.449219 3.351562 C 45.347656 3.277344 45.28125 3.226562 45.257812 3.207031 L 45.355469 3.085938 C 45.378906 3.109375 45.445312 3.15625 45.542969 3.226562 C 49.75 6.40625 52.476562 9.59375 53.214844 12.203125 Z M 53.066406 12.246094 " fill-opacity="1" fill-rule="nonzero"/><path fill="#edc31b" d="M 53.421875 19.574219 C 53.410156 19.535156 52.191406 15.8125 53.054688 12.320312 L 53.207031 12.359375 C 52.351562 15.804688 53.558594 19.488281 53.570312 19.523438 Z M 53.421875 19.574219 " fill-opacity="1" fill-rule="nonzero"/><path fill="#edc31b" d="M 53.003906 12.503906 C 51.816406 7.035156 50.027344 4.292969 49.507812 3.582031 L 49.632812 3.492188 C 50.15625 4.207031 51.960938 6.972656 53.15625 12.472656 Z M 53.003906 12.503906 " fill-opacity="1" fill-rule="nonzero"/><path fill="#edc31b" d="M 49.316406 3.746094 C 49.210938 3.601562 49.242188 3.402344 49.382812 3.296875 C 49.527344 3.195312 49.726562 3.222656 49.832031 3.367188 C 49.9375 3.507812 49.90625 3.710938 49.765625 3.8125 C 49.621094 3.917969 49.421875 3.886719 49.316406 3.746094 Z M 49.316406 3.746094 " fill-opacity="1" fill-rule="nonzero"/></svg>