<svg xmlns="http://www.w3.org/2000/svg" xmlns:xlink="http://www.w3.org/1999/xlink" width="198" zoomAndPan="magnify" viewBox="0 0 148.5 74.249996" height="99" preserveAspectRatio="xMidYMid meet" version="1.0"><defs><clipPath id="fe656f999a"><path d="M 0.496094 0 L 147.511719 0 L 147.511719 73.507812 L 0.496094 73.507812 Z M 0.496094 0 " clip-rule="nonzero"/></clipPath><clipPath id="01b630360c"><path d="M 74.003906 0 C 33.40625 0 0.496094 32.910156 0.496094 73.507812 C 0.496094 114.105469 33.40625 147.015625 74.003906 147.015625 C 114.597656 147.015625 147.511719 114.105469 147.511719 73.507812 C 147.511719 32.910156 114.597656 0 74.003906 0 Z M 74.003906 0 " clip-rule="nonzero"/></clipPath><clipPath id="b839c708ea"><path d="M 0.496094 0 L 147.511719 0 L 147.511719 73.507812 L 0.496094 73.507812 Z M 0.496094 0 " clip-rule="nonzero"/></clipPath><clipPath id="cd76c1983e"><path d="M 74.003906 0 C 33.40625 0 0.496094 32.910156 0.496094 73.507812 C 0.496094 114.105469 33.40625 147.015625 74.003906 147.015625 C 114.597656 147.015625 147.511719 114.105469 147.511719 73.507812 C 147.511719 32.910156 114.597656 0 74.003906 0 Z M 74.003906 0 " clip-rule="nonzero"/></clipPath><clipPath id="748a563dc2"><rect x="0" width="148" y="0" height="74"/></clipPath></defs><g clip-path="url(#fe656f999a)"><g clip-path="url(#01b630360c)"><g transform="matrix(1, 0, 0, 1, 0.000000000000000167, 0.000000000000006949)"><g clip-path="url(#748a563dc2)"><g clip-path="url(#b839c708ea)"><g clip-path="url(#cd76c1983e)"><path fill="#072649" d="M 0.496094 0 L 147.511719 0 L 147.511719 147.015625 L 0.496094 147.015625 Z M 0.496094 0 " fill-opacity="1" fill-rule="nonzero"/></g></g></g></g></g></g></svg>