<svg xmlns="http://www.w3.org/2000/svg" xmlns:xlink="http://www.w3.org/1999/xlink" width="752" zoomAndPan="magnify" viewBox="0 0 564 514.499985" height="686" preserveAspectRatio="xMidYMid meet" version="1.0"><defs><clipPath id="5a8b7f78c4"><path d="M 0.273438 0 L 563.726562 0 L 563.726562 514 L 0.273438 514 Z M 0.273438 0 " clip-rule="nonzero"/></clipPath><clipPath id="d1edef3569"><path d="M 318.238281 -122.429688 C 142.632812 -122.429688 0.273438 20.039062 0.273438 195.785156 C 0.273438 371.53125 142.632812 514 318.238281 514 C 493.84375 514 636.203125 371.53125 636.203125 195.785156 C 636.203125 20.039062 493.84375 -122.429688 318.238281 -122.429688 Z M 318.238281 -122.429688 " clip-rule="nonzero"/></clipPath><clipPath id="c7b1457713"><path d="M 0.273438 0 L 563.726562 0 L 563.726562 514 L 0.273438 514 Z M 0.273438 0 " clip-rule="nonzero"/></clipPath><clipPath id="d3cd789e6f"><path d="M 318.238281 -122.429688 C 142.632812 -122.429688 0.273438 20.039062 0.273438 195.785156 C 0.273438 371.53125 142.632812 514 318.238281 514 C 493.84375 514 636.203125 371.53125 636.203125 195.785156 C 636.203125 20.039062 493.84375 -122.429688 318.238281 -122.429688 Z M 318.238281 -122.429688 " clip-rule="nonzero"/></clipPath><clipPath id="4d01fc0899"><rect x="0" width="564" y="0" height="514"/></clipPath></defs><g clip-path="url(#5a8b7f78c4)"><g clip-path="url(#d1edef3569)"><g transform="matrix(1, 0, 0, 1, 0.000000000000000056, 0)"><g clip-path="url(#4d01fc0899)"><g clip-path="url(#c7b1457713)"><g clip-path="url(#d3cd789e6f)"><path fill="#0077b6" d="M 0.273438 -122.429688 L 636.203125 -122.429688 L 636.203125 513.5 L 0.273438 513.5 Z M 0.273438 -122.429688 " fill-opacity="1" fill-rule="nonzero"/></g></g></g></g></g></g></svg>